/* XPM */
static char *_1b7e2b4d9d24148934fcf822ea071fb5n6ib7limK0HIUeU[] = {
/* columns rows colors chars-per-pixel */
"64 64 256 2 ",
"   c #030A06",
".  c #061604",
"X  c #121D08",
"o  c #0E1914",
"O  c #0A2707",
"+  c #162909",
"@  c #0C3408",
"#  c #14330D",
"$  c #1B3B0B",
"%  c #173708",
"&  c #0C2816",
"*  c #182915",
"=  c #143414",
"-  c #1B3313",
";  c #1C3B13",
":  c #193719",
">  c #0D3611",
",  c #243A0A",
"<  c #233413",
"1  c #263B18",
"2  c #1A2F22",
"3  c #283823",
"4  c #2B3C32",
"5  c #1C4404",
"6  c #1C440B",
"7  c #184708",
"8  c #1C5409",
"9  c #1C4313",
"0  c #1C4C13",
"q  c #194519",
"w  c #1E5516",
"e  c #23440C",
"r  c #244B0C",
"t  c #2B4D0D",
"y  c #274608",
"u  c #23530C",
"i  c #2B540D",
"p  c #2C5C0C",
"a  c #275505",
"s  c #32570D",
"d  c #234413",
"f  c #234B13",
"g  c #2B4D14",
"h  c #24441A",
"j  c #254B1B",
"k  c #2C4B1B",
"l  c #2B4518",
"z  c #334B18",
"x  c #245313",
"c  c #2C5414",
"v  c #255C13",
"b  c #2D5B14",
"n  c #2C531B",
"m  c #2C5B1B",
"M  c #25561B",
"N  c #335C14",
"B  c #3B5B16",
"V  c #33541C",
"C  c #335C1B",
"Z  c #3B5D1C",
"A  c #375314",
"S  c #354C0F",
"D  c #2D640C",
"F  c #2B6808",
"G  c #33620D",
"H  c #3B640D",
"J  c #37690A",
"K  c #38750A",
"L  c #2C6214",
"P  c #2E6B15",
"I  c #2C621B",
"U  c #276619",
"Y  c #336314",
"T  c #3B6415",
"R  c #346B13",
"E  c #3B6C14",
"W  c #34631B",
"Q  c #3B641C",
"!  c #346B1B",
"~  c #3B6C1B",
"^  c #357315",
"/  c #3C7414",
"(  c #3B7B14",
")  c #3C731C",
"_  c #3D7C1B",
"`  c #34771A",
"'  c #2D7116",
"]  c #194221",
"[  c #294925",
"{  c #374824",
"}  c #2C5323",
"|  c #295624",
" . c #335323",
".. c #345C23",
"X. c #395A26",
"o. c #3C5B31",
"O. c #2B6322",
"+. c #346423",
"@. c #3C6523",
"#. c #3B6C23",
"$. c #396929",
"%. c #3C7322",
"&. c #3B7A23",
"*. c #3A7627",
"=. c #3F7632",
"-. c #3D6538",
";. c #425C1C",
":. c #426A0C",
">. c #46780C",
",. c #41631C",
"<. c #436C1C",
"1. c #466A18",
"2. c #437B14",
"3. c #44741C",
"4. c #4A741C",
"5. c #447B1C",
"6. c #4A7B1C",
"7. c #477616",
"8. c #53791B",
"9. c #445C2B",
"0. c #436422",
"q. c #436C24",
"w. c #4B6C23",
"e. c #446C2B",
"r. c #466729",
"t. c #516A29",
"y. c #447324",
"u. c #4B7423",
"i. c #447B23",
"p. c #4B7C23",
"a. c #45742B",
"s. c #4B732B",
"d. c #447B2A",
"f. c #4B7B2A",
"g. c #527B23",
"h. c #53732C",
"j. c #547C2B",
"k. c #587727",
"l. c #476934",
"z. c #4C7532",
"x. c #497833",
"c. c #537B34",
"v. c #516D33",
"b. c #617F27",
"n. c #516D44",
"m. c #3B8417",
"M. c #3F8008",
"N. c #3E8628",
"B. c #438315",
"V. c #4C8B15",
"C. c #44841C",
"Z. c #4B841C",
"A. c #4C8B1C",
"S. c #478817",
"D. c #548B1C",
"F. c #56881A",
"G. c #4B921C",
"H. c #4C9518",
"J. c #53931D",
"K. c #5A9C1C",
"L. c #579618",
"P. c #4D8B0C",
"I. c #63991B",
"U. c #708F18",
"Y. c #5AA31C",
"T. c #67A71B",
"R. c #6EB01A",
"E. c #438322",
"W. c #4B8324",
"Q. c #4B8B23",
"!. c #4C852A",
"~. c #4C8B2A",
"^. c #458A27",
"/. c #548424",
"(. c #538C24",
"). c #5B8C22",
"_. c #54842B",
"`. c #548B2B",
"'. c #5C8C2C",
"]. c #5B8427",
"[. c #4D9224",
"{. c #4B9628",
"}. c #549323",
"|. c #5B9324",
" X c #559B24",
".X c #5C9B24",
"XX c #55932B",
"oX c #5C942C",
"OX c #5C9C2B",
"+X c #559C2A",
"@X c #4C8135",
"#X c #548432",
"$X c #598A35",
"%X c #5C9333",
"&X c #5D9B34",
"*X c #549532",
"=X c #648D2B",
"-X c #639C24",
";X c #63942C",
":X c #629C2B",
">X c #6B9D2B",
",X c #679626",
"<X c #739A2B",
"1X c #648D33",
"2X c #668B38",
"3X c #639332",
"4X c #639C33",
"5X c #6B9D33",
"6X c #67973A",
"7X c #759C37",
"8X c #738C3A",
"9X c #5BA328",
"0X c #5EA234",
"qX c #64A325",
"wX c #63AB24",
"eX c #63A42B",
"rX c #6CA32C",
"tX c #6DAC2B",
"yX c #68A826",
"uX c #72AC2C",
"iX c #74A727",
"pX c #6AB328",
"aX c #78B62A",
"sX c #6CA333",
"dX c #69A735",
"fX c #74A434",
"gX c #73AC32",
"hX c #78AA39",
"jX c #6CB335",
"kX c #7CB534",
"lX c #7CB33B",
"zX c #77B636",
"xX c #7CC334",
"cX c #759C46",
"vX c #659044",
"bX c #76A943",
"nX c #79B645",
"mX c #75A94F",
"MX c #5E8C47",
"NX c #83B829",
"BX c #83BD35",
"VX c #87B938",
"CX c #8AAE38",
"ZX c #87C638",
"AX c #92CC36",
"SX c #87B945",
"DX c #8AB34C",
"FX c #8ABB62",
"GX c #89C544",
"HX c #95CA47",
"JX c #97D248",
"KX c #94CD52",
"LX c #95D453",
"PX c #8CCC51",
"IX c #A3D24F",
"UX c #ABE54F",
/* pixels */
").4.: zX/.$.VXNX* ;.g.H 3XDXf.I yXe.2XsX@.l.y JXS.W.'.AXbX#.%.E _._.CXp X.1.V l '.XX, E.V ..C 7.f.}.d | h l I W.#.,.=XN k w.q.l ",
"=XF.u uXrXY VXVXt.;...'.3X6XsXA.eXj 6./.#Xv.vXPXjX%X/.JXSXY %.W 5X%XGXx.q.Y =XX.).Z.l Z.n u.Q /.y.J.C 7 o.k W ;Xm T hXf } F.W.k ",
"cXiX/.uXI.u.iXVXSX1X..3.).oXgXuXXXq F.2.C.y.SXOXgX|.%XHXbX/ y.8 dXA.ZXc.E h.<X<.-XF.g (.} 4X0.XXp.Q.e.a e.l b ,XI B >Xx 9 ,XD.Z ",
"f.HX(.'.H.j.I.VXfXcX>X6.5XVX).GXXXC ;XXX!.XXkXjXZXD.f.SXKX|.f.7 |..XyX#X~ 2XfX,.uXg.W f.z.bX<.oX4.3.q.>.+.1 f I.m e '.i.f 3X|.1.",
"g.gX&XB 0X<.tXaXDXH HXrXfXI.mXHXqX;Xj.D.@XlXaXGXGXgXY lXKXeX$X6 OX&XwX&XW lXf.C eXZ `.N bX`.g.OXN m  .F.C : M F.h $ rX`.j j.hX8.",
",XI.5XbXJ.'.T.uXrXZ.OXGXgXd.4XaXGX>XQ F.P yXGXzXxXHX/ eXLXuX6.Q bXS.9X.Xb HXN M C.@.D.#.dXc (.9Xy M l )...* n p.[ s iXoXd 8.SXw.",
"L.-X:.kXSXVXiX-XNXsX&.aXwX&.OXT.LXHXA Z.XX}.OXnXLXaXE.GXKXzX4X3.hXOXH. X~ ZX3X^ E./.B.6X+X% ~.{.z j h '.c - n Q g 0.yXOXN ,XkXg ",
"F.$X2XR.SXNXhX5XT.eXm.tXwXG.9XH.nXHXw.5.H.*X~.' bXUXoXlXLXpX3X6.>XhX[.C.) gXBXQ.&XP.L.lXH.k m.[.B 9 f 5X5 l q.C H r.dXH.7.T.lXf ",
";XV.7.=XgXhXaXxX}.K.pXL.) &X+Xm.^.LXfXF.J.T.~._ S.zXAXyXSX:XoXT.yX:XlXZ._ yXmXT.H.j H.pXp ..) ^ ! n r fXh N K.*.w.E.XX4.L.uXkXx ",
",XyXg.4.aXKXlXJ.d.qXwXdX`.S.G. XD BXSXD.hX[.F !.J.m.GXPX9XuXnXA.oXT.AX~ H.aXdXeXA.m eX9X5 Y XXD =.Y f -Xg C 9X&.w.^ B.3.L.I.GXY ",
">XI.bXE NXT.GX>.! |.dX!.SX-XJ.jX) |.JX>XjX&.!.i.[.Q.nXGXHXT.bXE 2.ZXAX`.T.pXaXlX` U jX^.m W.[.W N.r I jX+.) dXR V S.(.y.Y.rXgXJ ",
"1X].qXV.VXeXnXHXR D gXP./ '.>.rX*.K AXyXgXW.f.f.OXA.:XZXdXkX5X3X(.ZXL.sXaX.X}.lXF *.pX! #XXXL.f.}.> 2.pX@ -XeX8 % m.%Xp.V.eXK.].",
"s 4.J.jXpXJ.H.<X'.) KXY.R } p >X@.D .XT.zXrXp C dX.X!.AX_ BXhX:XtXR.*XK.qX'.) tXF ^.Y.c 5.+XtX'.J.O 3.eXT NXA.c @.U Q ).[.OXJ._.",
"t 6.}.E.aXP.` 5XhX|.`.lXOXu.f 6.+.d.` R.qXlX/.C -XhX%.xX!.aXHX,XI.pX) jX%XR d.dXC.G.W.p ) pX`.|.6Xw.b A.>XaX!.z.u.*.Q F.eXeXA.t ",
"w.7.|.!.pXA.7 ! kX>XO.|.hXaX@.c.H $XC.Y.(.'.hX3X:X`.dXL.*XJ.ZX%XZ.C.m.OXi.i.) !.0X( W K ~.aXc |...DX! }.T.gX%.N p ^.q.I.wXqX5.e ",
",.T iX:X Xf.% M '.,X*XT.v BXZ./.>XR  XS.&.W ).V.p ! tXxXM.! T.hX6.#.G.9X|.b E ! 9XN.6 W.+X[.C  X6 k.&XP.dXOXU G %XM.f >XR.pX%. .",
"f.0.bXI.T P.: ; <X9Xf.VX(.`.D.Q *XS.fXf.v Q ..gXc T ,.UXh.u oXaX( m.4.^.}.< O.R (.#.a.) Z._ S.D.d S aX}.`.S.I A.y.*.+XP.wXuXN ,X",
"Z.7.zXhX3.S.h Y 1Xm.'.<.eX(.%XQ A.Z.;X%XM j.e >X0.k.1 JXsXr 5.AX'.( c.' Q.+ $.) }.oX$.% V._ OXR } # yX#XR N.E >X% f.aXT.+XT.f.rX",
"F fXkXlXV.OXvXF.j.*XF.} B.(.(.s.-X8.8.'.r.2Xh.].1.'.} 5XVX% u xXoX~.h U W.# d.~  XiXB [ 9X{. Xc x = :Xx.i 0 4.J % fXBXtX(.P.4XJ.",
") (.JXaXgXmX'.3Xp.*.DX@.^ @.S.c.HX7.r.>X2X:.#X/.uXMXA b.CXN $.wXJ.(.= b 3.$ ! v ^.R.h.[ 5.0XJ.c Y n ;X#.; @ u.q.C /.AXD.A.uXJ.P.",
"i.!.gXaX%XT }.3._.5.2X4XY 9 / g.AXu.V -XOXp.g.4XZXR 4.w.CX4.v 9XI.2.k ) ! } p *.~.rX2XA M wX}.Q 2.$XH u.; @ 8.$X~ i.sX.XrXI.fXD.",
"XXR 7.SXx x P.$Xa.).$ eX4Xf ) ).ZX2X9 T.D.6X`.V.NXuXi.8 VXW vXS.jX1.g _.W } b $X! oXB w.j .X5.Q i.$XN E j X.K W.P %.OXG.uXqXfX4.",
"/.( A SX0 vXG.f.W H O oXFX7Xi.7XrX/.% dX|.`.%XH.7XqXw %.sX$.;XS.dXc t /.$.r ..Z.7.;X% u.u.=X~ I E.&XC i @.X.9X2.0 R 9XK K.tX-XQ ",
"5.eXz kXY u.[.+.d.$ + C.%X<X&X2XFX<X% !./.%XW. XV.) *._.B ,..X9XE.$ B 6X..#.0.+X=XZ.> x.VX,.7 U W.jXk.$.3.; +X( h 2.L.( A.J.J.C ",
"n '.8 wXC.n 4.: Q [ Q 5.4.mXY.~ d DXw.w.&X/.Z.' %.M.oX% q.P *X9Xy.j j.Z.,.B 6XAXI.a.= q.AX< % M [.{.:.R ..; C.j < m.D.C.&.T >X/.",
"V s 0 .XG.) Q k g { /.5.Q @XtX<.z.7X<X~ `.g.) *.~ 0X1.  @.XX:XG.Z vXhXa [ j.8.V.D.3.M G VX< 3 N Q.' 0.q.0 7.^.@ ; ^ '.( #.$ uX5X",
"k.B - 5.dX&X$ ;.Z l 7.%.c y.jX% v.CX7X8.3.a.b 0 r :X* * I aXu.{.V =XhXr [ $X|.$X|.;XC ).IX< o E C.8  ...a.K.v - j L ;X` g # qXlX",
"SX8.@ y.G.G.Z z s r.7.b e.i.|.q g hX<X3XT q.C # X.0.. 1 *.vX8XH.MXk.<Xn h s.Z./ dX!.C L.HX;.& F.F 9 X.| |..X} { #.h qX! 1 $ p.aX",
"aXgXV R ^ jXmX  n w.<XY z.y.5X+...8.>XhX4.q.q.- Q % X - f.i CX~.c.1X;X@ V @.W./ dXb C |.,X=X# W.! [ A @.:X_ & , E.t tXu < $ ! aX",
"L.F.O.&.F tXP.+ a.W hXj.b #.fXv c.Z.>XbX$X_.4.- T l.# <XL.W 7XoXz.5X5XO c e 6.%.S.6 @./ %XU.$.XXj @ s 3X3.b 2 t 3.8.OXc $ k 1.zX",
"HXB.a d.D gX:.h y.*.`.2XG b g.m h.oXA.fX/.%Xg.* [ DXIX,X4.c.K.`.vXyX,X> ..$ 7.W ^.z.g.C f.P...A.+ z OX=XB g & ! q.rX! g - y.1.gX",
"AXfXD Q u.K j | %.' F 1X$Xj h.~ 1X|.Q.|.J D.Z.X F.NXs.<.h.Q.9XD.oXyXsXq w.1 s.n L J ,X9 W F.| >.3 l eX1X0.r., I r.rX8 $ : F.w.L.",
"wXtXj :. .d l < }.t g +X+Xh.t.R 4XP >.F.V cX7.& `.k.q w.a F :XAX%XOXQ.# 8.9.T v.7 g D.O h.%.! !.= - 1X/.k.=Xc 1 {.`.0 r s.,.Z 2.",
"Y.sX@.C ; r : + #.M @ b 4Xr e.N sXv Y Q s.DXp + j.8.d bXd.w -XZX4XC.m A s.;.N h.; V J & h.m >.^.+.Q Z.u.3X1X..6 ^ 3.f c q.<.g 7.",
"wXR :.i ] vXc.. $ Z O n g.M q.+.sXn i o.R <Xx.+ j.8.;.8X@X] 9XjX&X5.m ;.} 3.$Xw.: r.,.  4.e.s !.Q 6.:.Z >Xk.} y.p b $ W Q 0.e u.",
"p.$./ 5  .g bX<.V e - C u.a.i.W oXk p.w.R ].M  .].:.8.Q d.| L.K.eXb '., j J SX0.= bXb % 2X,.1 '.y.R N V :Xq.q..Xx r ; +.i X.c i.",
"- N ` > , . + ,XsXe 0.y.3.4.Q N.J.% =Xs y.6Xa n 2Xv 7.N y.u.T.zX|.P.fX* c 5.aXg._.) #.k.,.T 3 OX_.w i @.p.b _.}.d - < $.8 h q.<.",
"+ g F # , o   N zXv.1.) 5.k.c E.yXO Q 1 ! i.6XG ) $._.b N ).ZX X$XAX).  Y Z.9XfX<XO #XQ e.7 i L./ I r 3.$.5 3.a.; - - @.r # /.i.",
"y 0.bXA r.o 2 + }.4X<.6 `.).n P dXy @.1 W 7 1X7XY =.(.2Xl.2.xXH.c.ZXW   e.5 A.gX).1 6.h.0.x G R u #.7 ( l.L / +.; # + k g O F.~.",
"k DXh.w.4.% 5 1 8 pX@X& W.) j ) ^.8.u.X v : 0.F.w ) F '.# R tX{.i NXx - X.= .XH.-.k.A./.8XZ } 1 : S q G.$.`.Z.S 1 + . l ..* Z.~.",
"6XVX#.y.1.r  ., @ OX#.7 E./ n P ' y.7.= | $ r.=X$ ;XtX'.2 $ H.{.) |.| V { @ Y.*.| oX2.dXaXl.B l q 1 j S.+.{.V M - 9 X S r.: 0Xs ",
"v.V.:XZ 1.f b * + rXN g i.Z.0.3X7 p g ..C + X.5X, V kXoX{ %  X^.n 4.x C < j Y.8 x / 6.+X-Xl.c.t e h L F W H.l $ q 6Xl Z g n 9Xf ",
"Z Z.!.:.{ z.m < = >XQ k E.:XQ =X> @ V = ].l $ j.1 = Y.5.S ..m.P 2 N s <.1 ..i.W , P $X{.|.;.#Xb d 6 E ~.+.C.y - y.2.l B f 5.S.} ",
"/.e.H 1.+ & $X1.h rXk.X.` |.,.<Xf - t.= s.j.O @.% } tXx B #.U ! : 9 B.Z.o.6 E.q.l *.N &.5Xk.5.z.= 4.5.&X9 E.w.k -X8 n t b J.N.r ",
"C., w.j.< X H (.} gXB l.P C.1XCXq.% 1X0.N 8X@.0 i *X5X; | E.M #.l = G.eX; =.K 4.{ %.p O.I <XjX+.# ~ K.5.  *Xi <.gXq x.% N .X*.5 ",
"+X, S gX{ + V (.N V.H Y M ( 5X-Xf., g.bX<.l.3X$ W. XG + 0 {.W ! 9 T {.^ +.=.8 >X- ! p O.b F.D.n o.K 9Xp   _.H ,XdX7 *.. C +XJ k ",
"uXd ,.3X2X+ # #X4.Z.6X$X| 5.5XJ.6.a a.>X`.. 1X<.OX` i & w ` !.W : 7.` =.E 8 x.,X% u g ) U J.2.e j.9X~.y   q.fXqXD.q.m O  .Z.E ; ",
"aX2X3.G $ z $ Q 1XZ./.DX= Y F.Q.'.$.r -XK & h.rX+Xw A ; M O.B.f # C x.! w.j #.y.#.h j 3.&.9X~ X.P.m.+X% * W.2.eXP.Q $., k K X.d ",
"T._.i.T   3 1 6.uX-X1 p.f.z :XZ.A..Xc 0.:X> u.:XwXl  .b p [ L [ < d !.P / <.f.y.V o q Y *.D.1 XXS.M MXp ; b I G.D.O.K 1 1.,.q.g ",
"aXE p 1.X + [ 6.uXOX1 i.%X;. X_ ^.nX7.% dX3.u./ wX% r.) 7 & #.#.1 f '._ E.c y.&X+ * - a 0 /.$ /.8 L Z./ ; M I }.eX..b } }.d ,.u.",
"eXH p.a X * o.3XlX}.1 @XoX,.G.R ! &XI.# oXfX#X<.9X..~ #Xg > a.) ; L J.5.#X+._ *XV . ; g  .'.y !.q s /./ 7 e.x }.S.d 6 x }.* 1.A.",
"eXH ,X7.o + C b dX.X@ f.4X1.B.@XE.6XiX= 7XF.6X$X{.a.6.x ..e.x ~.$ ! }.) y.$./ _ j.+ & ;  .<XA I @.A t._ U y.5 XX' l C ' OXk 6.6.",
"}.l.H I.O o B C 4XeX5 MXOX( E.q.XX>.HX= DX>.iXT N.^ (.6 +.u.#.E.h Y XXQ T i ) ! d.v.O ; k 5X1.$.i.t.1 $X^ 6 i }.q d ~ P ).Q i.N ",
"Y.X.,.kX$ .  .5 !.VXY #XsXC.P i C.BXVXO 8X<XaXC ` 9XW.I @XT V *.[ b  XQ X.8 i.~ I 0.r 6 6 $X<.i.j.n.+ 4X! 9 #.B.& f _ r 6.5.~.; ",
"pX1.Z T.w.+ $ f 3.zXZ.g.rX^.L s Q.aXLXf 8XVXaX0 *.pX~.`.d.c + ! 1 v Q.Y w.%.~.c x s u.c r e.k.R 3Xn.. =X%.+.y.u - ~ O.+ W <.Z.O ",
"{.VX8.3Xy.B l } i.ZX-X1.sX` b <.[.L.BX6.7XBXL.0 ! zX&XeXN.# < W., U ` @.4.Z.^.h m C c c.0.5 t.! lX-.. 5X_.^ / & < 5.> < #.@.>.< ",
"pXgXD.G.Z Q C j b &XZXW..XB.d.b C.N.p CXBX:X:.j E  XN.eX~ l 9 +Xb : f.c ^ G.L | C b 0 x.<X@ =.T xXn.. CX`.3.z d M T . X ~.:.Q +.",
"BXp.6.jX, N f d 5.a gXR 0XS.!.% &.S.r iXUXXX,.C %X' ' XX3.l.o.R i.d ~ 6 i.A.G +.Y b M b z '.E.k zXl.# uX!.5.@.s.M e   . @Xz y.6.",
"qXC Z ZXc.mXV - '.u rXR  X(./ ; / D X.iXZXi.8.,.&X0 R b <.f  .Z Q.Y i > W ^./.p i.Y *.Q   E OX, !.Q 6 qXQ.(.b <.b +   & f.{ C.>.",
"yX/.4 rXT }.].t /.6.>X^ Q.S.#. .Y N = rXxX#.CX;.N.q r M q.7 6 k [.'.$.: ! &XhX~ v 3.6.Q ; ..}.e y.7.c A.^.%Xn J 5     d 8.V C.i ",
") gX. Z.f.m.T g.j.-XqXC.Q.B.| s 6 ~ . #.ZXC <XB P w # Q X.w g 1 ^.~ a.% f.XX).f.U %XR /.X.I B.+ e.].N E.y.'.C Z...1 1 0.-Xs Q.* ",
"[ +X].K 2.m.[ <.@.I.qXA.0XC.> H g A : 6 jXQ U.w.w b : s h v Z n ^.6 b % y.Q.|.d.&.i.D ).: >..Xo g.].r p.0.8.g /.W N T y $Xt &X+ ",
"d ^ H %XW r < H 6 F.iXG GXR % ..! [ - u 9Xx.HX/.> #.< I z E.d W E.> y h f XXhX) G.D #XJ : T.5.. hX;X7 5.,.8.e XX<.i.Q + $.t #X. ",
"t m j @.7., * @.A $XaX#.xXT r { R , * I M.W DXP.9 W V b { E.9 !.Z.& W 1 = }.lX!.Y.u 6.n l -X#.A ZX4X0 5.Q g.5 XXp.N.@ - m T 0.  "
};
