/* XPM */
static char *e0ad1befa1e84f1dd8b8558e1d55caacTfwQRCkbdYO0zQst[] = {
/* columns rows colors chars-per-pixel */
"64 64 251 2 ",
"   c #020401",
".  c #080903",
"X  c #0C1304",
"o  c #141B01",
"O  c #171707",
"+  c #1A1816",
"@  c #0C0716",
"#  c #231C0F",
"$  c #1B2404",
"%  c #1B2312",
"&  c #232B02",
"*  c #262909",
"=  c #2A3607",
"-  c #353906",
";  c #282918",
":  c #2C3417",
">  c #33331B",
",  c #383A18",
"<  c #322D11",
"1  c #1B1825",
"2  c #1C1A31",
"3  c #231E29",
"4  c #2A2925",
"5  c #342C27",
"6  c #2D3523",
"7  c #3B3C2A",
"8  c #373825",
"9  c #352D33",
"0  c #3B3934",
"q  c #2D2F32",
"w  c #182227",
"e  c #423C18",
"r  c #413B00",
"t  c #423A27",
"y  c #423C36",
"u  c #384607",
"i  c #3D441B",
"p  c #3B4616",
"a  c #394F0E",
"s  c #3C4423",
"d  c #3B4728",
"f  c #3E4435",
"g  c #43490A",
"h  c #485709",
"j  c #57590C",
"k  c #434B1D",
"l  c #464818",
"z  c #4C531B",
"x  c #4C5B1C",
"c  c #485516",
"v  c #525B1B",
"b  c #545A18",
"n  c #5A4C1D",
"m  c #4B6508",
"M  c #56660B",
"N  c #4D6316",
"B  c #576719",
"V  c #5B7519",
"C  c #58720B",
"Z  c #636A1B",
"A  c #677918",
"S  c #6B740E",
"D  c #424424",
"F  c #444C23",
"G  c #4B4C2B",
"H  c #474729",
"J  c #524C28",
"K  c #4C5425",
"L  c #4B5728",
"P  c #535B24",
"I  c #53542C",
"U  c #585928",
"Y  c #494737",
"T  c #534C39",
"R  c #4C5635",
"E  c #545C34",
"W  c #585837",
"Q  c #625C28",
"!  c #62583A",
"~  c #4C6425",
"^  c #5B6422",
"/  c #5C6B23",
"(  c #5C632C",
")  c #5C6A2C",
"_  c #546628",
"`  c #5B7226",
"'  c #5C633A",
"]  c #596734",
"[  c #596D36",
"{  c #656A29",
"}  c #64732C",
"|  c #6B752A",
" . c #687926",
".. c #757A28",
"X. c #646B34",
"o. c #646C3C",
"O. c #676838",
"+. c #726C3A",
"@. c #6B733B",
"#. c #687735",
"$. c #757A39",
"%. c #746B26",
"&. c #605F1C",
"*. c #3C3843",
"=. c #413948",
"-. c #3E424C",
";. c #494747",
":. c #534B46",
">. c #595847",
",. c #5A5855",
"<. c #4E4D4E",
"1. c #655B46",
"2. c #645D56",
"3. c #674A5C",
"4. c #5D6445",
"5. c #5E6A50",
"6. c #686847",
"7. c #746B48",
"8. c #6B7544",
"9. c #757847",
"0. c #686756",
"q. c #756B58",
"w. c #6C7258",
"e. c #777755",
"r. c #5B5964",
"t. c #4D4B6C",
"y. c #665E65",
"u. c #665C77",
"i. c #6B6767",
"p. c #736B65",
"a. c #777567",
"s. c #6C6774",
"d. c #797677",
"f. c #756B75",
"g. c #807835",
"h. c #837B58",
"j. c #857849",
"k. c #847A67",
"l. c #837B7A",
"z. c #5D8415",
"x. c #6A831A",
"c. c #76851A",
"v. c #789517",
"b. c #6F8A0A",
"n. c #6B8427",
"m. c #758628",
"M. c #7A9627",
"N. c #6C8334",
"B. c #788638",
"V. c #7C9537",
"C. c #6D942A",
"Z. c #5A8033",
"A. c #7B8647",
"S. c #7C8257",
"D. c #79866E",
"F. c #8AAD16",
"G. c #838A28",
"H. c #879829",
"J. c #848939",
"K. c #889839",
"L. c #949A3B",
"P. c #91952E",
"I. c #89A528",
"U. c #89A538",
"Y. c #97A739",
"T. c #99B43C",
"R. c #96B02A",
"E. c #9BA725",
"W. c #ABC734",
"Q. c #848848",
"!. c #889646",
"~. c #959849",
"^. c #878858",
"/. c #8A9357",
"(. c #959757",
"). c #958A4F",
"_. c #8BA446",
"`. c #98A649",
"'. c #99A558",
"]. c #9AB151",
"[. c #A5AB57",
"{. c #A7B758",
"}. c #A7B14A",
"|. c #888668",
" X c #948A66",
".X c #8B9365",
"XX c #979967",
"oX c #878579",
"OX c #938978",
"+X c #979677",
"@X c #8B9376",
"#X c #A39B67",
"$X c #A39D7A",
"%X c #A28A72",
"&X c #9DA577",
"*X c #99A669",
"=X c #A7A767",
"-X c #A9B662",
";X c #A6A777",
":X c #AAB578",
">X c #B7B473",
",X c #A59B5F",
"<X c #AFC44F",
"1X c #BAC66E",
"2X c #CBD177",
"3X c #C5B850",
"4X c #7B7486",
"5X c #6C6C8D",
"6X c #847C86",
"7X c #8B798B",
"8X c #7F8180",
"9X c #888686",
"0X c #948A87",
"qX c #999788",
"wX c #8C8796",
"eX c #938A9A",
"rX c #9A9697",
"tX c #8E9687",
"yX c #A49C97",
"uX c #A49A89",
"iX c #9EA28B",
"pX c #A6A788",
"aX c #B6B688",
"sX c #A9A69A",
"dX c #B7B798",
"fX c #AFAE91",
"gX c #9897A4",
"hX c #8B88A1",
"jX c #A59BAA",
"kX c #A8A6A7",
"lX c #B3A8A9",
"zX c #B9B7A8",
"xX c #BBB6B7",
"cX c #B1A9B5",
"vX c #C6B796",
"bX c #C4BAAA",
"nX c #C4B9B7",
"mX c #BBC98C",
"MX c #BAC3A8",
"NX c #C7CB89",
"BX c #CACF94",
"VX c #C6C4B8",
"CX c #D1D0AE",
"ZX c #DCE4A9",
"AX c #E6E5AC",
"SX c #B9B4C5",
"DX c #C2B8C7",
"FX c #D8D2CE",
"GX c #E3D9D8",
"HX c #E9E9D7",
"JX c #BDC1C4",
/* pixels */
"Y.}.`.#XpXlXnXVXGX:X(.0X0XQ.$.yX0XOX0XbXpXCXBXbXBXBXZXZXNXBXZXmXFXoXi : X 1 4 ; Y 2.;.y <.> F a . X $ 8 k.1.j E.L.NXvXHXHXZXZXNX",
"+.Q.'.BXBXfX;XaXdX_ e 4XeX|.@.|.|.0.0Xq.a.bXlXy.0.a.OXOX|.+XsXkXfX-XU.K.A.S.' & + X + ;.q >.] ^.#.A.B u Q t n k.3X3X2X2XBXBX2XW.",
"F S.^.*X^.;X.XB.' ;   @ =.y , e.,.q q f 5 0.k.|.a. X+Xq.W 0.D.5.hXtXS.V M ..'.!.7 + s.4X4X0X|.6.h  .(.[.P.,XbXDXvXL.3X~.^.vX2X<X",
"u _ K W ; w 1 q   . 7 : .   + + 6 %   $ X * l J 8 6.>.*   o 6 s t.-.-.f W o.$XaX] 7 kX5XhX4X6Xp.0.H 7.#Xg.j.fXk.j.j %.M g.[.P.b.",
"W.W.F.R.P. .h $ w oXzX$XuXyXd.9Xz.U.{.V.S.% X % h / N.[ ~ R [ Z.C a $ $ q 7 2.>.c o % s.SXSXwXd.wXp.6.6.; t +.g. X6.O.e +.%.&.J.",
"{ m.S ..].NXmX/._ 8.iXrXl.uX+X.Xn.m z.V mXMXR R U.v.x.<XmX*Xz.z.v.v.x.N.#.#.#.h e.W X X 4 y 5 Y oX6.{ F   @ # # * ; + . :.! q.sX",
"U X. .m...B.(.>X_ B./.p.w.( g R f L a u 5.pX[ N 8.~ c 9.iXD.[ a z.n.A.A.H.H.T.`.rXpX|., w.A.^.{ O.$.-X{.c $ 0.sX!.#.8.7.vXvX#X~.",
"K $.Z A h @.U p 6 h C K F h g -.d d a ~ -.X d = u _ B K >.,.R N s.,.d o.M N 5.D.u.s.k.- $.B.K.A F z A H.<XC U kX/.#.~.+.0X7X9.%.",
"z ] 9.| C I.<X].qX@.@.s $ L o @ X o $ : 6 ; X $ . 4 ; O + ; > 8 >.: ; E H R % 0 -.r.2.> $ I J n > + ; j Y.( o R Y w.F p k.q.t { ",
"c.K.J._.].n.8.pXrXBXaXS.o.A.&XsXd.i.0.a.a.5.4.~ ] d *     @ @ 2       6 ; X ; % s ; O % , O.H > > G F o H W p [ h M a $   @ . . ",
"S j B j.Q.9.a.8Xd.fXZX.XA.n.C.mXiXa.a.&XsXpX:X*XC C.M.n.V O.I ; 7 > R P B #.!.V.J.z * , b (.pXVX^...P.+., | I.v.W.U._.D.f.t.2.8.",
"| j M %.{ B.).A.cXiXmX6.R V Z.pXiX] u N V N.C.C.N m m Y.T.m.~.[.yXqXsX@XF ] ~ ~ Z ' ;.Y g 9.$XnX0XU Q.XXp c ` N / B N.:XBX$X!.1X",
"p.oXk.e.h.e.e.$XkX=XX.W : : L E @X_ x / N N ` x.D.[ a Z.B.$.^.$XsXk.H Y : , R = u k t 8 g ..$.h.j.p.p.7.P L i d e l M m.).).g.G.",
"> I W e 5 9 9 5 X - b W X o = $ : < K ) ~ L [ [ V N Z.a @.pXp.oX(.X.( , : & E R : $ . X * ! U O.S J =.7 u p L } OX{ c.I.g.g. X#X",
"Y.H.H.G...).~.Z 6.$.-X+X,.d $ d W P b c a F R [ V ` V a U U * I , X > X ; # O O 1 + + + @ 2 + < j * ; 8 + X 8 l  XU ` /. Xk.uXbX",
"XXA. .J.+X$X>XAXfX(.K.mXGX.XA.!.~.Y.H.M.V.} a u 6 5.+ ; 2.T ! b ( 8.U , & = O.+.K.L.H.m.U 9.g.P.|.Y.T.Y.A.z l t O : = : >.:.t n ",
"i.q.Y g { B.Q.$X7XsX~.P.1XA.K v 2.q.( Z M.v.F.F.v.A.Y : !.R.G.[.[.L.G.K.l [ B.M.m.n.A `.{.`.~.!.J.m.L.}.S J.L.1Xh , T B !.;X(...",
", , o.v | ..g.+.|.h.U z 0.<.f 9 Y 1.l , I ] [ ` b.V..Xd X.x O.6. XQ u ) s 6.X./ B $.V B  .m.$.Z o.O.A.#.Q.z ( >X=X9.j.Q $.^.#X>X",
"X   ; D - h.6.J F e p 4.5.>.Y & 3 0 5 ; * & k 8.Z.A.A.& L R 4.t H l c ) $ : i B B J.m.M  .K.~.| B.Z B b $.b &.}.#X! k.+.g.! j.j.",
"] i 6 d O 1.1.T v M V V.#.V.B.| z l & = u $ . o X ~ N u ] w.L c q.7.6.E $ * i L p P z p P @.X.b { Z j B Q { Z P.).g g.Q &.j j S ",
"M.V.!.| g.%.>X=X<X<XR.R.I.].XXqX:X;XXX(.`.J.{ J   ~ V.C.#.( = u y > , G s 6 : : 8 d d 6 t H 6 ; , e.6.H 1.< - $.k o P J T t J n ",
"m n.n.B.[.$.XX X/.A.` z.c.#.Y <.u.eXqX7.g.[.[.;X/. .U.M.B.X.E e Z b m.{.<X_.V.U. . .| c b B b h * e - n l l Q ~.].B.B.! t ; 8 5 ",
"V Z.a } { @.T 5 ,.-.6 : a x 8 y 1.q.2.t j.BXbXjXMX_ h a #.^.|.>.Y.c.S b.v.v.v.b.R.R.Y.G.H.Y.U.].dXXX$.'.Z J.[.L.R.R.E.2X>X}.L.m.",
"V.C.x.S m.[.mXqX= . % O * ; ; 1 4 9 y J J.-X^.a.tX,.; i L @.u : O.6.[ c / B.#.L C m { Z ( X.} .XcXyX+X9.g.+. XQ 9.J.g.vXvX-XE.G.",
"Q.;XA.V / aX.X2XX.= @.^.+X+XqXkXjXwXH = M L.= 7 l H 0 $ = x p o z - v l - - $ O = = 5.A._ p d u 3 % % % 8 I %.r W W @./.#X,Xg.J.",
" XaX{ h Z ;X9...7 O oXD.a.l.y.7XyX0Xd.G x /.$.6.Q./._ `  .A A.@.! 6.uXuXoX6X<.3 4.w.iXiXD.D.gX8XrX5.$ u |  Xk.2.< - & ..J.%.%.G.",
"%XvXn M ..).Q %.6.' 9.+.! ! 7.1.e y s.s.0.o.$.N C K.Q.!.m.h Q./.J.(.CXVXxXJXwXr.u.s.d.l.9XhXgX8XhXsXR = F +XxXGXj.{ h J.L.).P.{.",
"lXVX7.&.Z |.q.%.k U z { Q n g.n Q 2.f.4X>., E k / #.A.N P o.e.q.r { +XsXkXrX2.4 u.y.4XrXkXhX5X5Xt.5X*.@   <. XpXj./ B.N.g.).j J.",
"1.t < { ] >.: & ; 6 W ' W 1.! 1.n l.q.:.* & i 6 k @./.L p s >.1.y ,.4X7X4Xr.4   @ . + ; w + w 2 w w q 4 ; t 6.$.+X' ] u r g.n ).",
"I . X - $ O 7 o.8.[ N N b U ( 8.Q 7., , c g - ; c Z M M } k W * O + + 4 Y R ] X.H s 8 > < f >.' [ N V.x.j - l - e , = _ Q e r e ",
"g.).,X%.I :.uXXX].<XM.T.T.`.}.`.-X!.U ~ Q.#.) L U { Z B X.u @.} +.h.e.9.(.'.'.[.A.8.S.|.|.&XXX| V.M.T.R.`.'.Q.9.7.7._ _.(.g.%.%.",
"G.L.).>XvXq.dX2XM.I.].M.x.U.V V.F. .8.d X.V  .b 6.U J.{ e.4.6.] 7.OXOX|..X.X9.#.B.^ 8.h.O.X.A M Z.V N.:X>X:XB.<X XB.n.m.J.L.g.P.",
"J g.j.j.vX3.6.>.[ [ ` n.B  .` ` G.$.i d B Z { 1.q.6.+.O.e.8.F ,.:.p.a.f.u.r.D.#.i.<.4.[ x B { B x _ X.{ $.).9.{ w.B I , b $.{ L.",
"K %.+.j.q.i.H % $ x N u u h V A @.a.;.*.s T 1.<.1.n b ] S.A.i + 8 0 <.;.q -.d s 4 4 d : F 6.J ! u c ( ) X.7.e.9.g u g ^ b u g h ",
"v v %.h.!  X9.Z.d d 6 : d [ #.#.J./.6.4.{ B. XuXs.:.I D P B.C.@.W L L D % Y 6 H L k L p = 6.; 5 & , F H , > 6 0 = 4 < K ;.> u . ",
"}.Q.}.#X#X`._.R.{.!.` N !.K.M.c.E...h h C c.~.2XSX@Xd $ p A M.N.B.B.n.N.c 8.9.XX-XB.!.'.^ XXk.7.@.9.9.9.6.] I F = 6 ; * + + p.6X",
"L.j.g.j.>Xg.%.S m n.` - F x / | B.} p a ~ B Q.=X&X'.B i >.@.[ w.B._...V.v U z l @.h v !.v A. X7.b  .Z ..G.K.U.M.'.K.A.L z I |.dX",
",XfXj.h. XQ n ^ N ~ R ; 4 ; % 4 ^ o.4.E ~ x #.9.M  .x s f = $ % : F = R Y ,.1.H > 8 & L p l k l W 6.G n z g N h #.x.A.= { XX9X@X",
"%. X3.J +.7.#.a.B m h ` B.9.+.o.z.A.V.V.V.C.K.K.) h a 0.D..X/.L u : * $ + f W G , F a L ~ c a k Y T 4 8 > * d 8 * l 8.  . 9 =.=.",
"$...H n G.9.S F N N.V.!.Z | { { C.C.z.z.C.V M.M.!.n.'.CXFXVXCX9XA.B.A.p * I { ..B..._.U.M.U._.V.'.!.{ | { , z p b 8 ^.) :.9 5 *.",
" .:XFXbX,X).).l u n.x.A ^ 7.O.6.h _ ~ [ ~ a z.C.V.A.fX;X9.i.9Xo.[ Q.'...l 7.W Q | { m.K.n.A Z !.%X=XK.C._./ [ ) ^ A.;XqXyXeXjXxX",
"m ~.AXCXg.g.L.B : A.N.) O. Xe.E ~ d d p d a ` ` z.` ] v 9.0.>._ d [ /./.l D T U > O k L ) P K 9.3.>.{ N.N.u u ^ F E @XoXeXeXeXs.",
"S B.=X).j j | u 8 R s F H 1.t : , : L a a p = = o o d p D 4 + 6 $ : c ] t # e $ ; ; o * o H * < 1 + p ~ ~ & * 8.5.2.a.f.f.7Xi.4 ",
"Z { h.7.J b K z @.#.N B J J , , s ] A.B.A.#.A.9.8.d 8.[ P ' >.;.' { { A.+Xp.q.W T 7.O.@.- U I 6.#.u a a 5.w.4 3 0 7 Y t :.y.;.8 ",
"B U z & - b ) (.Y.T.I.U.J.=XA.P [ !.V.M.U.K.1XmXV.M.R.v.I.T.K.B.B.!.[.>XFXfXOXfX XU @.A.(.b U +.A Z B.B.A..XH 0 # < e e 1.2.T h.",
"..L.[.`.`.`.x.U.I.F.F.].{.>XQ.m #.V.z.C z.S -X=XC m v.C.n.I.U.m N C A ,XdX1., w.+XI F X./.l e , x p ] 8.!.[.N.B.H J ! 7.h.k.! =X",
"!.`.2X1XH.x.S v.M.A x.K.!.). .N V ` V V n. ./.A.5.a a ~ ] N.'.D x c u 9.h.T e l l I k ~ p = p G l t T ' b Z A !.R < U 7.7.7.J 9.",
"#X{ B.B.` V.n.C x ` ` B b 9.A.V ~ ~ #.` ` L F , d ` a d R u B I 6 d & O.1.q.#XB.$.#.B.!.'.} A.#.b l 8 t , U z K 6.o - J < t * < ",
"w.e.( / / ` N ` q ; L $.B.H.{.P.n.U.U.U.N.B.A.D D O.P L N _ ^.O.) ^ / A.o.L N.I.!.H.M.I.`.`.L.[.XXg K I 1.E z ] K.n.%.7.! h.T # ",
"sXqXS.9.g } #.M H L iXmX:X!.K.H.c ] $.A.B.B.^.S.l _ / ` ` A.XX^.` V #.A.[ s ~ C ` m x.m._.'.$.Z K.g ..!.!.K.K._.R.T.`.P.P.~.(.c ",
"yXp.w.^.] } | } ^ g |.a.7.e.Q.K.; 5 F O.8.{ { l 6 : i = : ' 6.T ~ m ` #.L : : P W p _ _ o.^.O.W l o U | v ^ } ~ n.N.{ +.Q.{ /.E ",
"1.Y > G 8.@.v P / c 6.s , E W ] ,.<.Y K E 9.7.H 0.R R : i w.>.Y ~ $ = p F i : >.7 : W 6.|.oXY T =.4 T t * > H ; ~ >.; t t 8 H 6.",
"7.+.J e 8.XX.X8.8.#.@.v k R rXVXnXsXuX Xh.h.k.a.B.V C.m m B./ { 5.: = d e.^.' E 0.H 7 0.nXlXT G 6.O.( l M v c c #.;X X^.#X(.B $.",
"vX;XaXXX6.^.&X.Xe.S.(.(.A.G d.gXdX+X+X$XXX|.p.k.B.` A.` B ^ c ^ [ R >.d o.9._ D Y Y Y T 0.:.D |.(.9.} B.'...| J.| /.).$.=X..u c ",
"aXuXdX+X6.p o.[ @.( @.] ] D ,.a.lXa.6.6.! T 0 Y [ s R R d 8 : d u ] 4.>.T , , > 7 6 + y <.y d : W e D 4.w.L P @.9.1.Y t W , s R ",
"T :.:.d >.' 8.A.{ 9.&Xw.w.0.G d =.9 :.:.W 0.a.OX_ = = p G E R ] m.(.tXzXbX|.0.w.,.>.2.l.f.r.w.i , * 7 T R d ' K H >.;.p.>.5.a.f ",
"aX^./.P - XXmXK.V._.].{.'._.M.z.c S.+XMXxXqXdXtX:XXX( g ~.=X(.Q.$.#Xk.dXCXdXpXdXjX0XeXFXqXOXOXO.4.>.a.7.$.~.-X[.P.NXbXFXCX2X-X_.",
"uX0.dXa.O 0.zXbXCXpX@X+XfXCXfX.XS.fXFXMXzXrXqXw.6.w.6.G W w.q.0.9.;X7.Y oXq.1.k.a.xXGXlXoXT 6.! R 4.R Y 9.).NXNXg.aXFXGXFXNX[.n.",
"nXqXrX>.<.r.<.2.@Xq.2.2.p.l.a.,.a.|.sXkXrXD.p.w.G R 4.4.7 7 y <.H 7.q.; ; 5 y y i.tXsXyX0 7 T G E 4.8 7 ! ! +XsXq.a.eXs.6.$.A.[ ",
"k.G E H i.f.l.q.J I W G t H >.2.4.> % -.f Y :.w.8.o.] 8.L G s d q.qXdXuX2.l.0Xl.2.a.2.6 :.7 0 5 & 6 8 y 7 ; >.a.0 3 9 y t G 4.R ",
"bXaXXX|.sXuXnXlX.X^.S.7.q.@XpXsX&X@X>.zXzXMXsXqXtXsX.XD..X.X9.A.0XdXpX+XrXkXrXyXrXFXFX4XkXkXgXeXtXeXxXgX,.0.a.q.2.9 1 l.l.yXnXSX",
"lXHXsXa.xXjXcXlXdXpX+X X+XzXVXkXVXiXY zXzXVXMXzXSXSXkXsXdX+Xe.&X9Xw.] ] qXjXgXd.,.eXcXjX4XrXeXhX4X6XSXgXi.VXHXVXxXl.3.FXnXlXjX7X",
"7XkXzX0Xp.f.7X0XqXqXl.q.p.rXkX9X@X,.;.rXjXgXeXrXhXwXgXrXgXa.,.,.s.4.c d w.8XrX>.q ,.p.>.tXf.,.wX2.2.4Xs.,.sXVXcXJX9Xq.bXlXlXDXnX",
"6XyXuXW T :.e q.k.q.! e t h.OXp.;.-.,.r.s.4X4X5Xi.6XrXD.0XsXoX+ 8XCX/.8.w.4X8Xa.5.i.0.0.,.@X0.d.0Xd.y.i.=.;.;.r.r.;.3.7X7XjXl.k."
};
