/* XPM */
static char *e6642173ea0a4c779a47a9cce197d8abtLJb3zS6zd0hFOuf[] = {
/* columns rows colors chars-per-pixel */
"64 64 244 2 ",
"   c None",
".  c #1B1B1B",
"X  c #181314",
"o  c #231E1B",
"O  c #291F1B",
"+  c #1F201B",
"@  c #25211B",
"#  c #2C241D",
"$  c #2F2617",
"%  c #31271E",
"&  c #342A1E",
"*  c #3B2D1B",
"=  c #392B17",
"-  c #1D1E20",
";  c #1F2022",
":  c #232224",
">  c #2C2423",
",  c #2D2821",
"<  c #2C2A2B",
"1  c #292629",
"2  c #332421",
"3  c #342B22",
"4  c #3A2E22",
"5  c #332B2B",
"6  c #3A2A27",
"7  c #3D3225",
"8  c #393228",
"9  c #382F31",
"0  c #3C3230",
"q  c #45321A",
"w  c #4B351A",
"e  c #4B391E",
"r  c #4E3617",
"t  c #533A1A",
"y  c #563917",
"u  c #402E18",
"i  c #423425",
"p  c #43352A",
"a  c #443A2C",
"s  c #4B3D2C",
"d  c #483A24",
"f  c #523D24",
"g  c #463831",
"h  c #4B2F2D",
"j  c #653C27",
"k  c #58421D",
"l  c #4D422D",
"z  c #48432A",
"x  c #54422D",
"c  c #564825",
"v  c #585527",
"b  c #4B4133",
"n  c #524332",
"m  c #5C4B35",
"M  c #5B4C3A",
"N  c #544838",
"B  c #5D533A",
"V  c #4D5029",
"C  c #664B26",
"Z  c #6B5B23",
"A  c #664C34",
"S  c #685638",
"D  c #75532B",
"F  c #6B6829",
"G  c #736C2B",
"H  c #7A6D2B",
"J  c #766728",
"K  c #74712D",
"L  c #7D732C",
"P  c #7D7A2E",
"I  c #6B693A",
"U  c #7A6A3A",
"Y  c #787731",
"T  c #60431C",
"R  c #5B5445",
"E  c #504741",
"W  c #63584B",
"Q  c #675A47",
"!  c #735E45",
"~  c #6D6449",
"^  c #74644C",
"/  c #7B6D4E",
"(  c #766447",
")  c #7A744A",
"_  c #6E695D",
"`  c #6C6655",
"'  c #746955",
"]  c #7A6D53",
"[  c #736C5B",
"{  c #7A6F5A",
"}  c #756653",
"|  c #7C725C",
" . c #7A7255",
".. c #7B7462",
"X. c #7A7769",
"o. c #747165",
"O. c #865A35",
"+. c #82742C",
"@. c #857A2E",
"#. c #8A7E2E",
"$. c #88772D",
"%. c #927D2D",
"&. c #837E31",
"*. c #877632",
"=. c #927137",
"-. c #8A4F4B",
";. c #846D4B",
":. c #8A764C",
">. c #8E794D",
",. c #83734B",
"<. c #816D52",
"1. c #847354",
"2. c #8C7A52",
"3. c #83755C",
"4. c #8B795C",
"5. c #937E53",
"6. c #907F59",
"7. c #9D764D",
"8. c #837A63",
"9. c #8B7C62",
"0. c #847D6B",
"q. c #877865",
"w. c #897F6C",
"e. c #8D832E",
"r. c #87822F",
"t. c #94822F",
"y. c #9A862E",
"u. c #8B8431",
"i. c #8C8A33",
"p. c #858432",
"a. c #938432",
"s. c #948C32",
"d. c #9C8C31",
"f. c #958636",
"g. c #939434",
"h. c #9C9332",
"j. c #9A9B35",
"k. c #8D9033",
"l. c #A38D2F",
"z. c #A88F2F",
"x. c #A8942E",
"c. c #A38E30",
"v. c #A39331",
"b. c #AB9531",
"n. c #A49C33",
"m. c #AC9B32",
"M. c #A49C3C",
"N. c #B29D31",
"B. c #B59A30",
"V. c #B2962E",
"C. c #BAA42E",
"Z. c #ACA234",
"A. c #ACAA35",
"S. c #A6A637",
"D. c #B4A432",
"F. c #BBA431",
"G. c #BBAB31",
"H. c #B3AC36",
"J. c #BBB435",
"K. c #ADB537",
"L. c #CBAE2E",
"P. c #C3AA2F",
"I. c #CCB52D",
"U. c #C5AB31",
"Y. c #C4B633",
"T. c #D2BA2F",
"R. c #CDC92D",
"E. c #DBD628",
"W. c #CAC735",
"Q. c #D3CD2F",
"!. c #E5DB2A",
"~. c #EADD34",
"^. c #ECE03C",
"/. c #948744",
"(. c #9A8455",
"). c #968259",
"_. c #9B8658",
"`. c #99914F",
"'. c #A59942",
"]. c #A38B5C",
"[. c #B1914C",
"{. c #B5AC49",
"}. c #8C826C",
"|. c #85806E",
" X c #9C8C6D",
".X c #988766",
"XX c #898372",
"oX c #888677",
"OX c #9B8C73",
"+X c #958B78",
"@X c #9D917B",
"#X c #98937C",
"$X c #97926F",
"%X c #A49268",
"&X c #A2947C",
"*X c #A99A76",
"=X c #A18E68",
"-X c #AEA37B",
";X c #B1A07C",
":X c #B2AF73",
">X c #C7BA48",
",X c #D3C647",
"<X c #E0D143",
"1X c #8B8C82",
"2X c #9B9484",
"3X c #989687",
"4X c #959588",
"5X c #A49D8C",
"6X c #A69B86",
"7X c #A19E91",
"8X c #ACA18C",
"9X c #ADA285",
"0X c #B6AA8B",
"qX c #ABA493",
"wX c #A7A597",
"eX c #B5AA94",
"rX c #B4AC9B",
"tX c #BAAF98",
"yX c #B4A994",
"uX c #BCB499",
"iX c #B6B38B",
"pX c #BDB4A2",
"aX c #BBB6A6",
"sX c #B2B5AA",
"dX c #C2B699",
"fX c #C4BDA6",
"gX c #C3BCA9",
"hX c #C2B9A6",
"jX c #CECD96",
"kX c #C9C3AC",
"lX c #D1C9AB",
"zX c #C6C1B2",
"xX c #CBC4B4",
"cX c #CDC8B9",
"vX c #D2CDBC",
"bX c #D6D2BA",
"nX c #DDDBA5",
"mX c #D6D2C4",
"MX c #DBD8C7",
"NX c #CECEC2",
"BX c #E8E7D5",
"VX c #E3E1CE",
"CX c #F6F5E7",
"ZX c #FAFAF3",
/* pixels */
"                                                                                                                                ",
"                                                                                                                                ",
"                                                              R.E.E.!.                                                          ",
"                                                          R.R.E.!.!.^.!.                                  M.                    ",
"                                                P.      K.S.D.R.E.~.^.~.E.                              m.U.D.                  ",
"                  U.Y.                        V.z.Y.    j.L +.N.E.!.~.!.Q.R.                            a.y.#.    j.            ",
"          g.J.  f.b.z.                          Z l.D.S.g.i.@.J N.Q.<X,Xm.v.    I.U.                    &.+.L g.H.G.S.          ",
"        h.P.P.j.  $.+.                              h.g.P K F v J v.d.*.H g.  J.G.C.                    s.l.#.s.b.b.h.          ",
"        s.z.d.@.  a.a.                              S.A.&.S S F J d.v k H s.J.J.                        d.l.u.i.u.H P           ",
"          L +.@.P c.F.h.                            S.J.Y.m.d.n.J.W.j.C ( `.H.                          v.N.d.h.t.K A.>X        ",
"      ,XJ.P $.b.i.c.F.v.                  ] 4.q.' ) j.Z.Z.x.r.y.F.>X,XZ.M.{.Q.    W                   g.b.V.z.l.$.r.J.S.'.      ",
"    M.S.W.i.+.m.v.F.L.F.            ZXZXNX[ } <.Q Y s.@.F Z V k t.N.m.j.H.,XR.P E W +X        G.W.S.j.n.b.N.m.z.t.i.n.e.        ",
"      s.v.@.L z.U.L.L.U.Z.        CXCXBXsXW ! ^ b K @.F J @.@.v k Z Z F $.b.J.u.g R w.VXCXCX:XV.G.S.A.N.z.N.N.b.d.%.@.K         ",
"      @.+.y.s.P.L.U.U.L.Y.H.    MXnXnXMXsXW M A d P H L e.v.A.Z.@.L M.U.l.+.Z.r.N M ' vXBXCXjXy.v.i.h.b.d.b.m.D.b.%.G K         ",
"        L #.v.U.B.N.F.B.L.W.H.:X{.R.Y.jXsXW n n l @.@.+.k D O.=.{.>X,XW.J.#.s.K n N Q zXVXBXBX:X#.&.y.b.c.d.b.n.b.y.@.&.g.A.    ",
"        F $.F.I.m.b.b.P.L.U.A.j.n.C.N.iXzXW n g v u.u.$.i f O.7.7.].=.%.e.v.n.v a n Q gXMXMXVXbX`.a.z.V.c.d.v.n.m.V.d.a.h.v.u.  ",
"  H.K.S.p.s.F.G.h.v.m.L.T.C.v.s.s.h.'.lXzXW s 8 z &.i.f.q . 2 h ^ 9.! s J A.A.V a M ^ fXbXvXbXMXlXM.b.b.v.v.b.b.b.b.%.a.t.#.    ",
"  h.M.Z.s.b.U.N.n.v.C.L.I.C.v.u./.iXlXbXgXR 7 p i G r.s.O.2 h 2 > > X h N.K.j.z 3 n ^ dXlXkXfXxXcX#Xu.c.v.b.D.D.b.l.t.          ",
"    u.*.+.z.P.m.D.n.F.P.P.B.y./.uXkXkXlXyXN 7 4 3 V &.u.z.A j -.-.-.A ].'.A.p.z i p N 9XdX0XuXdXpXoXv u.t.v.D.D.V.d.            ",
"        @.l.l.N.D.G.N.b.z.l./.iXuXeX0XuXOXa 4 3 7 i G u.f.[.7.! -.7.>X'.j.g.I z s n x  X;X*X0X0X0X8.B K s.y.d.h.u.-X            ",
"          a.y.m.m.G.v.#.e.K $XuX0X;X*X;X' , 4 % & 7 v &.$.a.[.[.[.[.f.p.k.I ~ z p s i ^ %X%X*X*X$X/  .I G r.r.K ) kX            ",
"            /.y.v.h.$.L G V }.9X;X*X.X%XS > % 7 % & 7 K @.+.H *.+.J F p.F  .R 8 s n 3 A )._.%X%X.X) 1.2.) I K ~ #XkX            ",
"             XL r.@.P Y V B }.*X%X.X).).l # 3 i 7 & 3 l P @.H H H H Y F  .0.i 3 s x # b :.>._.=X.X1.:.>.).).)..X9XkX            ",
"            -X) K P K V R )  . X.X2.:.2.d # 4 4 % & & 3 c H +.L L P S _ |.N 7 , 3 i % a ;.,.:.5.(.2.5.).(.(.(._.9X              ",
"            ;X=X,.) ) ]  ./ | ).:.:.>.:.& % 4 & O % O o 3 s I U U ~ ' ` g % & , > 3 , 8         >.:.)._.(._.%X%X-X              ",
"            ;X*X_.).2.2.,. .3.,.      A $ 6 i & $ > 3 3 3 % p R Q R R 3 , 8 8 @ @ 4 3 @             )._.(.(.].*X                ",
"              *X]._._.2.) 1.          & O * i 6 % $ & 3 @ 3 3 3 3 8 7 , , 3 3 @ , 4 3 @                                         ",
"                %X].(.:.).            7 O % * * 4 & % 3 # , 8 N N ..~ 8 % 3 3 3 4 4 3 :                                         ",
"                                      s % * i 4 4 i 3 % @ 8 { @X| }.@Xa , 3 3 3 3 3 , a                                         ",
"                                      A $ % i i 3 6 3 # 1 b &XtX8X0X6XM 3 , , 3 3 , 3                                           ",
"                                      }.! M s a i 4 3 3 3 Q yXhXtXtX6XQ 3 3 , 8 b b `                                           ",
"                                      9X&X X9.3.] ] { }  .#XpXxXxXgXrX+X' ' ' ..}.#X3X                                          ",
"                                      5X6XOX6Xw.@X5X5XrXrXhXcXmXmXzXsX7X7X7X5X1X4X7X7X                                          ",
"                                      qX2X@X6X2X5XaXgXvXvXcXmXMXmXzXsXrX7X7X7X5X#X7XwX                                          ",
"                                        &X2X6X8XrXhXcXmXcXvXmXMXmXzXaXaXrX7X5X2X3XwXrX                                          ",
"                                        &X6X8XyXrXaXxXvXcXmXMXmXcXzXcXcXgXrX7X5X5X7XwX                                          ",
"                                        w.6X2X6X5XyXhXgXhXxXvXvXcXcXgXhXrXqXqX5X3X2XwX                                          ",
"                                        <.9.9.w.2X6XqXdXeXhXhXhXgXgXgXhXyXqX8X2X1X1X1X                                          ",
"                                      4X} Q 9.9.=XOX@X6XyXtXdXhXgXgXhXtXrXqX2Xw.oX_ wX                                          ",
"                                      2X2X} ! <.4.9.9.9.%X6XyXeXdXhXtX8X6XOXw.3.E o.wX                                          ",
"                                      1X2X+X] m S <.4.1.4.9. XOXw.&X&XOX}.] W R _ oX1XwX                                        ",
"                                    1X1XoXoX0.{ M n A ( / ;.<.1.4.4.<.! W N R 8.w.oX1X4XrX                                      ",
"                                    oX1XoXw.X.0.w.<.S m f s n n n n h M ! { | 8.|.oX1X7XpX                                      ",
"                                    X.1XXX0.9.9.6.9.4.2.;.( x x x m } <.]  ...X.oXoX4XX.~                                       ",
"                                  ] X.0.X.0.q.3.3.9.1.1.1.1.<.] / / ' { ' _ o.|.oX+X( z z D                                     ",
"                                  c S ] 0.X.0...3...| ] ] ]  . .{ [ _ _ ` ` X.|...B e e c S                                     ",
"                                  c k c M ! { { | | ' ` } ` ' [ _ _ _ _ _ o...! c e q k k C                                     ",
"                                C t k w q q d m ^ 0...| [ [ o.[ [ [ [ X.|.      y t e t y c                                     ",
"                                C C f r y q q t       +XoXXXXXXXXX0.            = y y y w e                                     ",
"                                D D f r w u k                                   = r T w q d                                     ",
"                                C T y q q t                                     w r d w r                                       ",
"                                T T y y k                                       y y w r r                                       ",
"                              + y y y t T                                       T y w w e                                       ",
"                              . $ r r =                                         y y w r 3                                       ",
"                              . . @ @ ;                                         $ q u = @                                       ",
"                            - . ; ; : <                                         o @ @ o 1                                       ",
"                          ; ; 1 1 < < <                                       o o o . X ; <                                     ",
"                        1 1 < < 5 5 <                                         o o o - - - 1 <                                   ",
"                      > > 5 9 9 5 1                                           o O 1 : ; 1 1 < <                                 ",
"                      , 5 9 9 9 <                                             > O > O > 1 1 5 < 5 9                             ",
"                      5 6 9 6 6 ,                                                 2 2 # O > 3 6 0 0 0                           ",
"                                                                                        > O > 2 8 p g                           ",
"                                                                                            2 6 6 h g                           ",
"                                                                                                                                "
};
