/* XPM */
static char *c3260969fa784212e0bbcedfa194d3adlDp3MgcQufr6c4Wd[] = {
/* columns rows colors chars-per-pixel */
"64 64 193 2 ",
"   c #6AA7E8",
".  c #6BACEC",
"X  c #73AFEB",
"o  c #6FB1ED",
"O  c #7FB4E7",
"+  c #76B2ED",
"@  c #7CB4ED",
"#  c #7FB8EF",
"$  c #6BAEF3",
"%  c #63ADFB",
"&  c #70ADF0",
"*  c #6DB2F5",
"=  c #66B2FE",
"-  c #6CB3FB",
";  c #6EB8FF",
":  c #74B4F4",
">  c #7BB5F2",
",  c #71B8F6",
"<  c #7CB9F4",
"1  c #73B5FB",
"2  c #7AB7FB",
"3  c #75BAFD",
"4  c #7CBCFB",
"5  c #77C2FC",
"6  c #7CC1FF",
"7  c #8EB8DE",
"8  c #83B7E6",
"9  c #8BB9E5",
"0  c #82B6ED",
"q  c #84BAED",
"w  c #8BBDED",
"e  c #9BBDE4",
"r  c #91BEED",
"t  c #9ABFEB",
"y  c #84B7F1",
"u  c #84BBF4",
"i  c #8ABDF4",
"p  c #83BDFB",
"a  c #8ABEF9",
"s  c #91BFF2",
"d  c #8DC1EE",
"f  c #94C0E7",
"g  c #9DC1E6",
"h  c #95C1EE",
"j  c #9AC4EE",
"k  c #9EC9EF",
"l  c #85C0F6",
"z  c #8DC2F5",
"x  c #84C2FD",
"c  c #8CC3FB",
"v  c #83C8FF",
"b  c #8DC9FE",
"n  c #93C4F5",
"m  c #9AC6F3",
"M  c #95C9F5",
"N  c #9CCAF5",
"B  c #93C6FB",
"V  c #9BC7FB",
"C  c #94CAFD",
"Z  c #9BCCFC",
"A  c #9CD0F7",
"S  c #95D2FF",
"D  c #9CD2FF",
"F  c #9FD9FF",
"G  c #A1C4E4",
"H  c #AEC9E7",
"J  c #A4C6EA",
"K  c #A4CAED",
"L  c #ACCDED",
"P  c #B0CFEC",
"I  c #B8CFEF",
"U  c #ABD0EF",
"Y  c #B4D3EF",
"T  c #A0C7F2",
"R  c #A3CCF5",
"E  c #AACDF4",
"W  c #A3CEFB",
"Q  c #A9CEFA",
"!  c #B3CEF2",
"~  c #A5D1F6",
"^  c #ACD1F5",
"/  c #A7D3FA",
"(  c #A6D1F9",
")  c #A0D0FF",
"_  c #A1D1FF",
"`  c #A2D1FF",
"'  c #A7D2FD",
"]  c #A7D2FC",
"[  c #A5D1FF",
"{  c #A6D1FE",
"}  c #A5D3FF",
"|  c #A7D3FF",
" . c #A0D4FF",
".. c #A5D7FF",
"X. c #A7D7FF",
"o. c #A4D2FD",
"O. c #AAD1FA",
"+. c #ABD2FB",
"@. c #A8D2FA",
"#. c #ACD2F9",
"$. c #ADD3FA",
"%. c #ADD0F8",
"&. c #A8D4FB",
"*. c #AED4FB",
"=. c #A9D2FE",
"-. c #A8D3FE",
";. c #A8D2FC",
":. c #ACD3FC",
">. c #AED3FD",
",. c #A9D5FC",
"<. c #ABD5FD",
"1. c #ABD5FF",
"2. c #ABD6FF",
"3. c #AAD6FF",
"4. c #ADD4FD",
"5. c #ADD5FF",
"6. c #AED5FE",
"7. c #AED5FF",
"8. c #ACD7FF",
"9. c #ACD6FE",
"0. c #AFD7FF",
"q. c #ABD4FD",
"w. c #A4D9FF",
"e. c #A6D8FF",
"r. c #A6DAFF",
"t. c #A5DAFF",
"y. c #AED8FF",
"u. c #AFDBFF",
"i. c #AFDAFF",
"p. c #ABDFFF",
"a. c #AFDFFF",
"s. c #ACD9FF",
"d. c #B3D4F4",
"f. c #BAD5F4",
"g. c #B6D9F7",
"h. c #BDDAF6",
"j. c #B1D4FC",
"k. c #B2D5FD",
"l. c #B3D6FC",
"z. c #B1D7FE",
"x. c #B4D7FF",
"c. c #B2D5FB",
"v. c #BBD6FB",
"b. c #B1D8FF",
"n. c #B3D9FF",
"m. c #B1DBFF",
"M. c #B3DAFF",
"N. c #B5D9FF",
"B. c #B7D9FF",
"V. c #B4DBFF",
"C. c #B0DCFF",
"Z. c #B3DDFF",
"A. c #B6DDFF",
"S. c #B5DFFF",
"D. c #B4DAFE",
"F. c #B9DBFF",
"G. c #BADCFF",
"H. c #BBDCFD",
"J. c #ADE2FF",
"K. c #AEE2FF",
"L. c #B7E1FF",
"P. c #B5E1FF",
"I. c #BDE2FF",
"U. c #C4D9EE",
"Y. c #C8DAEE",
"T. c #D2DFEF",
"R. c #C3D7F5",
"E. c #C2DDF5",
"W. c #CCDDF5",
"Q. c #C2DEFC",
"!. c #CADFFA",
"~. c #D9E4ED",
"^. c #C5E1F5",
"/. c #CBE3F3",
"(. c #C4E3FE",
"). c #CAE5FE",
"_. c #C7E8FF",
"`. c #CCEAFF",
"'. c #D3E4F5",
"]. c #D8E5F5",
"[. c #DBECF6",
"{. c #D1E6FC",
"}. c #D4ECFF",
"|. c #DBEDFD",
" X c #D6F1FF",
".X c #DCF2FE",
"XX c #DDF9FF",
"oX c #E4EDF4",
"OX c #E5EFFE",
"+X c #E5F0F4",
"@X c #E4F3FE",
"#X c #E9F3FF",
"$X c #E4FAFF",
/* pixels */
"l c C Z C M a w n w h N W W =.*.3.k f N D.P.*.R K E z.O.E E l.:.Z.Z D q > x : * % % = = $ . + @ 8 d n d 8 @ > < x 2 4 p p + + > ",
"a B C C C C V V M N Z _ W W =.M.i.~ k o.L.L.z.R R E $.O.R $.z.R } D D n q > & 3 - = = = * : + @ n M D D B u @ u p p p x x y @ u ",
"a i B B Z _ _ Z W W =.*.O.Q :.M.Z.&.~ } a.a.&.( ] R O.$.*.Z.N.R Z z Z B i X   1 = = = = ; 6 v < C A r.J.D u @ u p c C C c l z l ",
"n z n M _ } [ W W =.*.*.:.$.z.M.&.] ( &.&.] E ] ] Q 3.*.M.L.D.[ N q q Z B >   * - ; = = 3 v b x z Z J.J.D u 0 p p C S C C Z C n ",
"m n n N 3.3.3.R j.:.j.z.F.G.F.N.( ~ N ~ o.R R ] N R 3.i.3.*.i.] Z z d w.} i > 1 3 3 ; = - 5 4 # O D J.r.b q q u c Z Z Z _ } _ m ",
"m m m R 3.i.*.O.z.l.k.v.H.(.Q.F.] R R o.R W ] ] N ] Z.Z.3.} [ N N N N P.P.z i p 6 6 3 1 3 3 4 # # D r.D p q p i C C C V [ i.3.R ",
"] R R ( $.*.j.^ l.v.v.H.H.(.(.F.i.o.N A ] } _ [ N W i.L.i.} 3.o.R N k L.I.N n c C 4 : 4 6 x p p O z S n w q z i C V V W [ i.i.$.",
"N.z.$.^ ^ j.*.d.d.N.H.H.H.Q.Q.F.Z. .N N &.} Q ] h m [ Z.3.[ [ Q R g e G.`.M.Q h  .a > 4 x p @ @ O O q i i u u i Z C Z ] $.j.N.H.",
"D.g.g.^ ^ g.G.H.v._.`.H.v.v.Q.l.3.A N Z N A A Z m m R 3.=.T m R E g L _.).Q.j.R n V B 0 y i i 0 q q u u i i a B Z V W z.D.I.(.H.",
"I.I.H.I.H.I.I.(.(._._.F.c.c.c.Q o.N M N Z Z Z ~ m m W i.z.Q R E e e L Q.(._.(.d.E Z n q i C [ _ C c i q y a n B V W 3.D.(.I.H.g.",
"h.h.h.(.I.g.H._._.(.G.l.k.Q E J M d d M N m m N k N Q *.N.N.E E e K c.Q.(.{.{._.I.&.N n M W [ =.C C l u 0 i B n V W 3.N.I.G.f.P ",
"Y f.I.(.h.H U H.I.M.O.O.Q R T W M z d n n h m o.N E Q j.F.H.c.E R R G._.`.`.`._.(.<.o.V m n n n z c c i y a B a C W 3.:.d.d.d.d.",
"h.h.^.`.h.H K ^ $.E R ] W m V _ Z z d n n h m ( M.Z.l.N.H.Q.H.j.R m O.I.I.h.h.H.D.a.}  .V w w B c C D c a l B a M [ i.3.^ ^ g.I.",
"^.^.`.`.I.U K ^ ( R o.N m s M  .D B n C M h k ] I.(.(.(.(.(.Q.v.Z z N Z.g.^ L U L.Z.a. .C z a C Z S C C a u u i B D Z.Z.*.z.g.H.",
"h.^.`.`.(.g.d.O.( O.o.V n c C D F b z Z D M m ( G.I.).`.).R.f.l.B c D } R K U ~ &.}  .Z c l B C C z p c C c i y i Z Z.Z.D.D.I.g.",
"U._. X X`.(.H.g.^ &._ V B C Z D F B B D } N m E ^ z.(. X).I H E M Z  ._ j m ~ A 9 d c c l c c c c @ @ C r.D B i s W 3.3.M.L.G.z.",
"Y.'..X.X}.).R.f.E c.O.n n B b C C B C V R R ^ *.d.d.N._.(.^ G R W Z 3.} m M Z Z i y y > p b c l u p n D J._ n n n Q *.:.l.(.I.l.",
"U.}.$X$X@X}.W.f.f.I.M.m z C b c p i B Z Z R ^ z.^ E ^ D.D.O.R N W Q 3.[ m M Z C a p p 2 p c c z p z c D } Z s r N Q z.l.l.H.H.v.",
"Y.{..X$X|.}.!.R.f.H.M.m n B l a u u n Z o.W O.i.^ E k K } 3.o.N W W 3.] N M Z C a a p y a c B c c C B C Z n w m [ :.M.F.G.F.F.g.",
"E./.{.{.{.).!.h.f.l.$.N C n l C c b C C D _ W Q R R m j N } A Z W R ] &.A A D Z V a p p a c b C l c c n n w r N *.*.z.H.I.v.f.f.",
"R.E.Q.E.!.!.!.h.v.j.^ =.[ n z D F S C b Z D N m R _ o.m n Z Z Z W N Q 3.&.,.D M B a a a a B B C z c z i w w h ] z.j.z.(.Q.h.v.g.",
"d.g.h.Q.(.).Q.H.v.d.R 3.[ z i D F S b z M Z N M _ 3.3.Z n V Z W =.Q &.i.p.t.D M i u a a z z C A z C z z w n Z i.N.l.l.H.(.Q.R.Q.",
"g.g.g.g.(.(.Q.h.d.^ ^ [ W M B C S C M z M N o.N 3.*.=.W m n Z [ 3.] i.Z.p./ o.V i a a B B n M D C Z C n m N Q Z.I.G.H.Q.Q.).(.!.",
"D.g.d.L d.v.H.N.E M.*.Q W Z C Z C A N M M N o.] M.M.=.W m m W :.] O.i.P.,.~ r._ n B B V C n M A C Z Z n n m N *.I.(.H.Q.Q.).).(.",
"D.M.$.^ E d.g.g.d.^ Q m m Z C n A N N A N k R $.D.Z.z.R R Q Q Q T R &.~ ~ k A w.Z Z Z _ _ Z Z A Z Z Z N N R $.M.I._._._.(.).).).",
"i.i.$.^ j.d.c.N.$.$.R N N Z C n A R ~ &.E k R / I.I.F.j.E j.j.:.Q E E ~ ~ ~ ~ r.[ Z Z _ } [ R N A o.&.( ] ] M.D.I._._.(.Q.).Q.!.",
"~ ~ ( z.M.^ d.N.j.^ Q W Z C B n N R e.*.^ R E z.G.G.F.l.c.c.c.j.Q R j k ~ ~ r.r.e._ W W e.[ o.R O.&.&.&.O.$.M.G.(.(.(.(.Q.(.Q.R.",
"~ k R <.z.^ ^ z.M.O.W [ Z n B C N o.i.i.( ( $.z.z.F.G.N.l.l.g.j.R R J N ~ ~ e.e.e.W W W 3.[ R N $.z.z.z.$.d.g.H.(.(.(.I.Q.Q.h.g.",
"R k k ^ *.E ^ M.N.3.[ _ Z B c C N [ *.} ] ] 3.*.O.M.g.M.z.g.N.M.Q Q ( ( ~ ~ } e.Q W W W W W Q R g.g.F.g.j.d.d.g.G.(.(.Q.H.H.v.Y ",
"] N R / ^ ~ ^ M.D.*.3.D C B c b n _ 3.W Z [ 3.W Q 3.<.*.<.Z.M.g.*.z.i.*.&.( ]  .s V W W W W [ z.N.H.Q.H.v.g.d.U v.H.(.(.h.h.d.d.",
"&.,.$.,.*.<.M.z.M.i. .V n c c c B Z [ Z Z _ _ N N ( ] ( ^ ,.D.M.N.M.3.&.] ~ ~ Z s s s W W W =.M.v.H._.(.h.h.f.f.h.I.I.H.g.g.g.v.",
"<.L.D.D.D.g.N.z.*.i.[ B l l c x z C D C Z _ Z d C Z Z N R } e.i.i.3.] N o.] R Z W s s V W Q &.$.v.h._.`._.(.h.h.g.I.(.h.j.j.D.G.",
"L.h.H.h.G.v.k.j.Q W W C c x 4 < i z C Z D D C c c n i n Z Z W [ e.} Z Z _ A Z M M N Z Z R O.^ *.g.(.).`.`.`.).E.v.F.j.! j.N.i.M.",
"^.^.E.E.(.Q.Q.l.Q W B c p l 4 5 u i c Z F F C c c l i B Z Z C C [ D M M C Z B M C V N R R $.*.j.^ v.(._.`.^.^.h.I g.%.Q k.v.D.I.",
"'./.^.).).{.).(.Q W n a x p 4 4 u i c C C D C B a u 0 B Z [ W Z Z C n n M B C C M M N W O.^ ^ ^ E z.I.I.I.I.(.h.E d.E ! H.Q.(._.",
" X[.'.{.|.}.).(.! T s B c x 2 2 p z c c C C B l 0 u c V W W W Q V M n z z z n C n M V R Q o.R O.Q *.M.g.g.g.g.g.d.f.f.v.!.).W.).",
"$X@X[.|.$X|.{.E.H e 9 i z p 2 p p p i l c c l a 0 B [ _ V j m m n n z z q z z n n M N R R ] ] ] W Q W E ( <.z.*.! c.v.Q.).'.T.].",
"#X@XOX@X@X.X'.E.! J 7 9 u < 4 v < u p p p a c z 0 Z e.=.m m T m M B z z z z M B M C Z D [ O.3.3.W Q R R ~ ,.,.] R ! v.Q.|.].~.oX",
"#XOXOX@X#X@X[./._.f.G m i y 4 p 4 < u u u u z z i Z i.=.Q 3.=.Q C B B b C C C D Z Z Z _ ] } 3.*.j.j.:.O./ e.$.o.m E c.!.}.'.~.oX",
"OXOXOX@X$X+X.X[.XX`.D.i.Z y > < p p u u u i q z V [ i.3.M.G.z.N C b c b C D C Z N Z N N o.&.3.*.v.H.H.H.g.a.&.~ m T j.Q.}.{.'.oX",
"T.|.OX|.@X@X|..X$X XI.L.o.q @ y p c C c u i M i V 3.L.[ m N.I.W z z l z C Z Z Z N Z } [ ~ R o.R v.Q._.G.d.i.e.~ W V W H.).).^./.",
"R.W.!./.|.|.[..X X X_.<.R h i i C C Z Z C Z W m m W W N W I.z.9 d u l n C D  . .Z [ } 3.o.Z N E f.!.Q.Q.g.M.$.A W V W :.N.v.L.^.",
"R.v.I R.{.{./.}. X X`.d.^ z.3.V Z z z C Z W C s h =.[ m Z =.W s q l z n Z D r.s.i.e.*.} ] R R R R.Q.!.(.(.L.g.&.W Z Z W o.~ *.P.",
"v.Q K v.(.h.h.). X X`.v.g._.(.a.i.V n _ =.W V j Z L.M.m s m n B q z n C Z [ e.P.Z.i.*.3.] R W E R.R.f.(.I.I.*.p.W V Z Z M M ,.P.",
"_ M h ] z.E L Q.}.{.Q.h.h.`.`.(.M.m t W =.Q W N M.I._ w w i i i z z C Z Z _ i.L.Z.*.O.&.*.O.( ^ k.! ! d.d.^ ^ / W _ [ W C M A r.",
"B w w Z 3.W E Q.{.Q.v.R.(.).`.}.Q t t R Q Q :.:.=.Z.} n q 0 u u z C Z _ o.] 3.M.Z.O.^ $.i.*.O.O.j.:.E K U U ~ ~ =.3.} W Z B M B ",
"5 O > C =.W W v.!.v.I f.f.E.).`.c.Q j.l.:.$.N.D.T W _ B 0 y l c B M Z Z W o.( ^ z.E E j.M.*.O.] i.e.} ~ ~ *.$.Q ] W W W Z C z d ",
": + + c _ W V Q Q Q L J H f.h.h.z.M.F.F.R R E [ R r q 0 0 c C p b M C Z Z R R ( *.R R $.N.*.] ] _ s.3.o.( 3.*.W T N N C V C z 8 ",
"3 3 * 3 b c y s V W V r r N &.] M Z e.J.&.m ~ e.[ M 0 0 y a B C B Z C M V D o.k N R R ] Q ] ] } i.e.&.] =.Z m s s a V V B z q q ",
"3 3 $ * 4 4 > c C Z C n h V D D z M N o.A A ~ } _ V i 0 y B V C S Z S Z Z A Z n Z N Z Z Z _ [ [ ( &.] } =.Z a a y a a V B C z d ",
"3 3 * . : > y c C C C C B M C C z z d n N A A r.W V i y i a C C D B C S S C n z Z N n N Z Z W W N _ W Z W V i i a a a a C Z n d ",
"3 4 1 , > 4 u p B B C Z C n i z z l d d M A o.r.V V a a u c B C S n z C Z n z d B n n n n n C C D W n n n s i c s V V a b C b u ",
"4 4 4 < > < a a c C Z C C z i p c z z d d M  .r.Z V V B a B C D S z l b C l d l C C c B B B C C C Z B B n a z C D  .Z C c c c i ",
"c 4 < 2 X > c c B C D Z B l i i c b M z d n A } Z V V B a B C C C c z b z u < u S C C C C C C B B B B B Z B z C D D C c i i a a ",
"b 2 > > X @ u c c S D b c c c z b C C z d M Z D C B B a a a B b S b b n l # # < c C S b c l a a a c c c C b B F D b z z a a B B ",
"c X + u 0 > u a c C D c a c l l C C b d n A _ D C B a a a B B C D S S b 5 # # 4 4 v b b p > 2 u p p p p c c C F Z q @ a c B C D ",
"B l p a p a u u p C C C l p z l C C C z d M  . .V B a y l z z b C c c c l < < < : x v v 4 X : 4 2 p c 4 > l S S b l # 5 q u B w.",
"C B c c c u u p u c C b c z c B C C C B M D r. .V V a i a u d n Z b z z 4 < + , 2 4 v x 4 p 4 p p p : o # b b b z l # # + > c S ",
"B C C C a u u l u c C C c z z C B B B M A o. .Z V C a a c z q M C b z p u < , : 3 3 3 2 4 x 4 4 c p + + < v x < 5 5 O + + : p c ",
"i c c C i @ u p p c C C B n C C B C B n N A ~ A W W V B M z d M M z z l x 4 < , 1 * * 1 2 4 4 4 : 4 4 < < 4 x < X + + : : 2 6 x ",
"y i a c p u > @ p c C C n n C M B C M n h N R ] *.W n s C n w d n n c C b x 4 3 * * * * , 1 2 < + : 4 < 2 p x 4 . $ : $ : 3 6 6 ",
"a a c c c p + + u l c B z M M V V B s r j m N N *.[ V V Z V h M N n n C C v 4 3 * ; 1 - : , 4 6 x u < + & p 4 2 1 * $ $ . * 3 6 ",
"x c c C C x > + 0 x c M n V Z W V B w h A ~ R j *.:.W V _ W A r.Z n B B C l < , * * * 1 1 : 4 < b S b < & 2 1 1 2 - * * * o : 5 ",
"p c C D S c u < @ z B C Z D [ [ W M n A P.I.*.V W Q W Z W A } P.W V n B c p : $ $ $ $ $ : 1 2 < l S F v & & 2 p 2 - ; 5 5 , , 5 "
};
