/* XPM */
static char *_98ee5c9e3944ac58058f98d75e0c8c1XHHOMsE2cIy50pg0[] = {
/* columns rows colors chars-per-pixel */
"64 64 240 2 ",
"   c #040404",
".  c #090605",
"X  c #070803",
"o  c #0B0C05",
"O  c #0A0609",
"+  c #0D0C0A",
"@  c #120E0D",
"#  c #190D07",
"$  c #0E1106",
"%  c #0F1109",
"&  c #101307",
"*  c #12130B",
"=  c #19140E",
"-  c #171A0F",
";  c #1A1A0E",
":  c #1A1C07",
">  c #0F0C10",
",  c #140E12",
"<  c #151312",
"1  c #1A1614",
"2  c #1C1B14",
"3  c #1D161A",
"4  c #1E1B1A",
"5  c #171918",
"6  c #251C0E",
"7  c #221D16",
"8  c #231D1B",
"9  c #251B1A",
"0  c #1E2009",
"q  c #1D2115",
"w  c #1F221A",
"e  c #1F2A18",
"r  c #22230D",
"t  c #38260D",
"y  c #222215",
"u  c #25231B",
"i  c #29251D",
"p  c #26281A",
"a  c #2B2A1D",
"s  c #282816",
"d  c #322414",
"f  c #312D1C",
"g  c #36271B",
"h  c #2D321D",
"j  c #33341C",
"k  c #3A3A1C",
"l  c #373A1D",
"z  c #1E1C24",
"x  c #231D22",
"c  c #231D27",
"v  c #252222",
"b  c #2A2522",
"n  c #2D2B23",
"m  c #26242E",
"M  c #2C262A",
"N  c #2E2A2A",
"B  c #262A2A",
"V  c #322E25",
"C  c #3B2C23",
"Z  c #322C2B",
"A  c #352A29",
"S  c #343225",
"D  c #3A3425",
"F  c #363A24",
"G  c #3B3C24",
"H  c #363329",
"J  c #39352B",
"K  c #3C3A2C",
"L  c #37392C",
"P  c #252632",
"I  c #292733",
"U  c #272834",
"Y  c #2A2A35",
"T  c #2C2C3A",
"R  c #262739",
"E  c #332E34",
"W  c #332E3B",
"Q  c #382F30",
"!  c #353036",
"~  c #3C3533",
"^  c #3E3C31",
"/  c #34323A",
"(  c #3A353B",
")  c #3D393E",
"_  c #2F302F",
"`  c #433A1B",
"'  c #4C3513",
"]  c #43342C",
"[  c #423C2C",
"{  c #4B3B2D",
"}  c #443A25",
"|  c #423D32",
" . c #4A3D33",
".. c #443C3A",
"X. c #463835",
"o. c #402F23",
"O. c #3B401F",
"+. c #3D4127",
"@. c #3E422A",
"#. c #3F4036",
"$. c #41431C",
"%. c #514D1D",
"&. c #634404",
"*. c #434323",
"=. c #42432D",
"-. c #4B452B",
";. c #44492D",
":. c #4C4B2B",
">. c #484A23",
",. c #514D2B",
"<. c #574828",
"1. c #4B512E",
"2. c #5B5B26",
"3. c #53532D",
"4. c #5D5C2C",
"5. c #565527",
"6. c #454235",
"7. c #444234",
"8. c #4A4535",
"9. c #4B4B34",
"0. c #4B433A",
"q. c #4D4A3A",
"w. c #464538",
"e. c #524A33",
"r. c #53443A",
"t. c #524D3C",
"y. c #5B4B3B",
"u. c #574634",
"i. c #4D5233",
"p. c #515434",
"a. c #54523C",
"s. c #5B543C",
"d. c #5B5C3A",
"f. c #555935",
"g. c #635D2B",
"h. c #634D3C",
"j. c #62523D",
"k. c #68583B",
"l. c #78593A",
"z. c #5E612B",
"x. c #5E6337",
"c. c #64642C",
"v. c #69652D",
"b. c #6B6A2A",
"n. c #72722C",
"m. c #7A7B2C",
"M. c #6B6D32",
"N. c #686636",
"B. c #736E32",
"V. c #746938",
"C. c #737333",
"Z. c #7C7C33",
"A. c #7A783C",
"S. c #6E6F2B",
"D. c #2D2D43",
"F. c #2F3142",
"G. c #313344",
"H. c #35394C",
"J. c #3C3E50",
"K. c #433B40",
"L. c #3D4051",
"P. c #4D4342",
"I. c #4B444D",
"U. c #534B42",
"Y. c #594B42",
"T. c #534846",
"R. c #555241",
"E. c #5A5643",
"W. c #5C5B43",
"Q. c #5E5749",
"!. c #554E51",
"~. c #614B41",
"^. c #635244",
"/. c #6A5642",
"(. c #625B44",
"). c #6B5A45",
"_. c #6D5C4A",
"`. c #66594A",
"'. c #725C45",
"]. c #745E49",
"[. c #6F574C",
"{. c #64634A",
"}. c #696449",
"|. c #75634D",
" X c #796648",
".X c #7B7445",
"XX c #746C53",
"oX c #786654",
"OX c #7C7557",
"+X c #6F6654",
"@X c #696163",
"#X c #837934",
"$X c #836A4C",
"%X c #826C54",
"&X c #877659",
"*X c #937A56",
"=X c #89794C",
"-X c #977D66",
";X c #8A7561",
":X c #8B8C3A",
">X c #878638",
",X c #94973C",
"<X c #878A35",
"1X c #898447",
"2X c #999944",
"3X c #9B835E",
"4X c #8C8154",
"5X c #A5865B",
"6X c #AA9459",
"7X c #A98754",
"8X c #9FA146",
"9X c #A1A443",
"0X c #A8AD44",
"qX c #A5A653",
"wX c #B1AB53",
"eX c #998669",
"rX c #9E906E",
"tX c #A68A65",
"yX c #AB966A",
"uX c #B79867",
"iX c #AB9575",
"pX c #AC9176",
"aX c #BAA368",
"sX c #B8A27A",
"dX c #C09D69",
"fX c #C5A46B",
"gX c #C9A86E",
"hX c #C7A876",
"jX c #DBB77A",
"kX c #CCB277",
"lX c #BEC54E",
"zX c #C8CF56",
"xX c #B8A182",
"cX c #C8AD84",
"vX c #CFB68A",
"bX c #DCC89C",
"nX c #EED191",
"mX c #F9E19D",
"MX c #FDE7A4",
"NX c #ECD3AA",
/* pixels */
"                          O 5 > 5 B K u L b n H ^ ^ 6.w.w.8.6.[ H y * $ @ & + X $ o $ $ $ & * $ $ & & $ $ $ $ $ $ o X X o $ o o ",
"                            5 O < b K u #.7.^ | ^ ^ 8.q.t.q.8.8.^ v * $ & & & o X $ $ $ & $ % & $ & & $ $ $ $ & o o o o $ $ $ o ",
"                            o @ o a L a #.w.7.w.| | w.q.t.8.q.q.w.n ; * & & * & X $ $ * & & & % $ $ & % + $ & % $ $ & & $ o o o ",
"                O             + * N K n 7.7.7.=.7.6.8.q.q.9.q.t.7.n 2 * * * * & o $ % % & & & & $ % $ % o % & + o o $ & $ $ o X ",
"                        o   > , 5 S L h 7.7...6.| 7.8.8.q.q.q.a.7.n 7 1 * * & & $ $ % % & $ % & % % o o o + $ X + % % $ $ & & o ",
"                +   >       O < u b S #.^ #.7.6.| 7.8.7.9.q.q.q.7.S 7 5 < * & & $ % $ % $ $ & & & % o o X % +   X X X o X o o o ",
"                <     O X   > 5 u n S ~ ^ #.6.6.7.7.8.8.8.R.R.a.8.S u 5 1 - * & & % $ $ $ % & & - % X o o o X % + o & o o + + X ",
"                < >     X   < v u a N L L ^ | 6.w.7.7.8.8.q.R.R.8.S u 2 q ; * * $ $ o o o $ & o % % X o o X % % o X o o o + $ $ ",
"                O >     > > % w p B a n H L [ 7.6.7.8.q.w.R.E.E.8.J a u 4 - * & & & % + % $ % o % X X o @ $ % $ o X o o o $ & & ",
"                  X   + v w < v B n n n L K J | 7.w.w.w.q.R.E.W.t.K V u u 2 1 & * * $ % % % o $ o X X O o o o $ @ + X X X o & @ ",
">                   + % H 5 < _ V b b n S S L K | 9.7.w.w.q.E.E.t.| V n u 4 1 - * % $ $ % & o $ + X X o o o o $ &       . X o & ",
">                   > % L - * L S n b n N S L J | | 7.9.w.q.E.W.t.] V V b u q 1 - - $ + % & $ + + o * % $ $ $ o +         X & & ",
"  +               + % 2 #.p w H J S N n N h S ~ K #.=.7.8.t.Q.W.`.0.H V n b w 2 1 - % + X X o X + + * % o $ $ o o         o & o ",
"< *             o < w B ^ n N ~ J H n b n n N H K K =.8.XXq.R.E.`.r.~ S V b u w 2 - * % X   X o o * % o $ $ o o X         X & & ",
"4 + o           > @ w n L p S ^ ^ H V n a a S S J K ^ 7.xX|.w.E.(.^.K J S N b u 2 - < * + X X o X + < o o o o o X   . .   o o & ",
"4 O >         + < + w H L a H #.| J V n a v V n J L L =.xXxXt.{.(.`.w.~ H V n b u 2 1 * % O X + < * X o @ & o $ o X o X X & + & ",
"v * + .   X X < * 4 n L ^ S S ^ | K L S n u n p L K L [ iXxXE.W.t.^.r.H ~ H V b u 8 1 < + + @ X + & + + * % X o o o o X o % $ $ ",
"N < + X   O X < p ; V [ S q n 6.7.^ ~ H n b u u h L S ^ iXsX}.{.[ t.Y.Z J H V n u u 2 1 < @ + X % & & o o % o o $ % o o $ $ o $ ",
"S < 5 O O % O w S 2 i | J S | w.7.| ^ J V b u p a S S #.&XiXXX{.^ U.t.H H J H V n u 8 4 1 + + X @ * o X X o o o % o $ $ % & $ $ ",
"S % < * + X - N J y H [ K =.w.w.7.| | J S n b u u h S ^ +X&XXXa.~ P.U.H H J J Z n n a 7 5 * @ o & * $ X   * o o % o $ & - 2 * & ",
"H 1 * + % 4 n H J a K J K K K | 7.6.7.K J V n b i n N ^ XXOX}.q.V ~ q.J S J J H S a a u 4 < * & * @ & .   < + + * & & & h a - 2 ",
"S 2 7 * * 8 H H J a S K J K K K | 7.7.K K S n i u u a 7.}.OXs.#.! V w.H L J H H S N n u y 5 2 1 * & *   O < * + < - * : h S s p ",
"S p - 2 4 y N H H J H H J J J [ K | 7.K K J V b u u u | XXOX{.9.Z N ~ H V J J H J V n n u 4 2 1 ; * * X O 3 < + & q - y n F j S ",
"S n q 2 q y a H S J H S J ~ ^ K [ | 6.[ K J H N n n n 7.OXXX{.a.~ A ~ L L J H S D S V n v u y 2 ; = ; . O 3 2 * % u q p h @.F h ",
"S S e p a a f V V S H V H J J J ^ ^ | | K J H V V N S 8.OXOX{.E.L 8 ~ V V V n S H H V N n u w 2 2 ; 1 @ O z 1 = o w p i S F F S ",
"V S h p i n b V V S S V S H H J J J | | [ J H H J V n t.eX&Xx.a.S 8 ~ J n V V V S S V N N p u 8 2 ; 2 C 9 9 1 * X y S p j l j F ",
"V S S n a u i b V V H V V Z H H J J K | | K H H S S i W.&X}.W.9.H 8 A ~ n V V N A V Z V n n p y u q 6 d b 3 1 @ $ ; h h F h h +.",
"B n n a a u u b n V Z H H V Z H J J K K [ K J H V n p }.|.s.W.K S 8 b ( V V a V n V S V N n b u p y 7 o.9 3 1 = o ; S F S j S @.",
"N a n h i u i i n V Z J H V Z S H J D J [ K J H S n N +XXXf.E.K n 2 v E S N n V V a H S n N n b u u i { A 1 1 @ o q @.@.+.F F @.",
"N n n S a i u a a n J J V V V S S H J J K K K J H M L XXOXa.a.S u 1 x I N V V a n V K n S S n b u u f g C 3 1 @ $ w ;.=.@.S @.;.",
"N V V n n i u i V K J J V V V V S H H H H [ K J H n [ ;XOX9.t.n 8 1 x m x n n n a L S n S N n n n u K u.C 3 9 * * i F @.@.F =.1.",
"n V n n n a u i C J ~ H V V V V V S H H H J K J H V 8.tX}.9.q.a u 2 4 v x 7 n V j S S L K S n N n y -.y.C 3 9 * 2 j h +.@.@.;.i.",
"b A V V n n u a [ J H J S V N V V S K H H H L ^ K V (.&X(.9.;.i v u 4 v c 4 4 G *.j l 5.M.C.i.S N p =.u.o.9 9 1 7 S h @.@.i.;.i.",
"M V V n n a n S S ] Z ! H V h V H J J Z V S J | K 7.OXj./.9.D i v x 8 x v v u G 3.>.l j *.z.M.N.G u ] } ] 9 x 3 u F +.=.i.i.;.1.",
"b A n a b n n K K g N Z H V V V Z S K S V D D 7.| {.OX].a.7.a u u 4 4 5 w w 7 a l F h s l O.*.z.c.S ] {  .9 9 x y K ;.=.i.i.1.i.",
"x b b n n n S =.[ b N V D V S V V V J V Z D S J E.(.XXk.e.F i S 8.7 5 4 w u 2 q a n p h >.z.z.z..X3.[ u. .i b i u F 3.1.p.a.i.@.",
"8 b n b S a K 9.D Q M n V L H S V S J V V D D [ E.t.t.u.N.i.-.3.N.9.a u p y w q p p p s $.%.5.5.c.N.-.r.| u x i 1 h 1.1.i.i.e * ",
"9 x b n D V J G S n M N V D H S J J K V V J a.d.9.S V =.V.c.c.M.c.4XeXx.p.F p s w y w w s O.l l l >.s.-.{ b 9 b < S h y +.+.% - ",
"4 8 u n K V L L a n b M V F S J ^ K | S S ;.a.a.-.-.] -.:X#Xn.2.b.B.kXaXC.c.O.>.y p w q w s h s p r +.-.[ b u u 4 K h p d.@.- p ",
"1 8 8 b J S J J g a b b n [ D J J ^ ^ J S N.A.A.>X1Xp.1X,X<Xb.g.2.%.4XkXC.z.>.>.>.z.j h w y u p q 0 s } { M M u v F @.h x.p.+.@.",
"@ 2 2 u S H D [ D D b 8 H 8.F D L K K [ }.qX2X9X0XqXN.:X<XS.n.g.k $.g.yXV.` *.$.v.C.2.>.j 5 u u y y y } } b A u v n f.1.x.x.p.;.",
"@ 1 9 7 a H D | S r.b u f D f S N L J 9.1XqXlXlXqX2X:X2X>Xc.5.*.j F 5.*X=Xk l $.n.S.S.v.g.s 2 u w q q D ] b b u v n p.1.f.x.x.@.",
"< @ 1 7 u p S n V { v u V G D L S K J L M.zXzX9XZ.A.:Xn.4.,.f i u 7 s k.yX*.7 3.=XM.M.c.4.:.7 1 2 2 2 j f 8 M u u v 7.1.1.x.f.+.",
"= 1 1 1 4 y u u V [ x 4 a D *.3.G S S 4.8XlX0X<XC.c.4.-.1.j 1 5 1 @ + D iXo.* -.2.C.S.c.k j 2 7 p y 2 f s 1 8 b y 8 S 9.+.@.1.+.",
"@ @ @ 7 2 8 y u n [ b n f G -.` } g g.9X0X8X<Xn.%.S a n [ 1 3 3 < > > 5 -X} O d $.2.v.V.y.a @ u i p 1 a a 8 9 a n 7 n ;.l +.+.w ",
"@ # , 2 2 7 u u p S G 2.C.m.b.g.g.B.,X9X:X:X>Xz.D v 8 8 V z 3 3 3 , > ,  X .. , a ` ,.3.k.} = s i y ; j n i 8 y V p i =.@.+.n q ",
"@ @ , = 2 2 w p h s f >.v.m.#Xn.:X2X,X<X>Xb.i.K J M M x S a g 9 z z z , '.r., 3 u g a C u.h.6 y u u 2 f i p i 8 p n 8 G ;.p q q ",
"# @ 5 4 1 5 h S s >.2.c.b.Z.#X#XdXwX:X>XZ.2.,.K Z A Q A A n o.d 3 z z 3 h.u.6 t 6 b 8 9 6 h.y 7 p y y a i 7 s p i p p S K y s r ",
"3 1 x 8 4 S G p S M.S.m.m.<X8X:XuX6X#XZ.v.5.,.9.Z X.Q Q V { 0.` 6 z c x h.~.t &.d 9 b 8 # u.d 7 2 2 2 i a u s i u 7 a a i f i s ",
"x x x x v F h e p O.@.M.m.m.2XZ.=XpX6XB.5.<.-.y.J ..~ X.J y.j.{ t x m c u.h.' &.t x A 8 D u.g 9 1 8 8 n b 9 9 7 2 y i i q s V a ",
"x 3 c c v a e e e q e 5.<X2XZ.<X1XyX*XV.g.g.-.8...0.T... .y.|.r.t 3 Y M h.k.o.<.t M M A ] g { 7 8 b b Z b x V b u 7 8 i y 7 2 = ",
"8 3 9 9 8 u q 2 0 q - s x.2.M.2X:XB.=X;X.X#X5.u.~ X.Q. . .[.%X^.' 8 Y Z j..Xo.{ C E Z Q 9 V { b x 8 b M i x M A A u u u 7 y # . ",
"9 3 9 3 3 8 5 1 - - * * e ;.2.m.m.V.V.#X6X6X#X<.| D ~./.] /.%X/.' 9 I X..Xu.C Q ] Z Y A c ] { 9 9 8 7 r 6 8 x 9 b x 9 9 u d < @ ",
"3 3 9 x z 9 1 @ + + + * 0 h l 1.` [.g.n.hXvX Xg.j.V /.*X{ /.&X].' { K.`.).o.} Q ] I E M o.] d # 9 9 y 6 : 7 9 9 9 8 9 9 9 * . > ",
", @ , , > > O O O O O < 1 = q k } ~. XN. Xd.<.k.u.f  X*X{ j.&X|.' j.oXoXh.r.{ E ~ ~ ( E X.X.C M A 1 7 6 : q 2 7 9 9 7 7 1 * @ @ ",
"O O O O O O O O , 5 c c x Q =.<. .A  .y.k..X#X=X/.s.%XyX;X-XpXpXpXpXoX_.u./.h.'.).`.-XX.] X.o.G.] E n r 0 * 1 2 7 1 7 8 9 u B w ",
"@ O O O o + 5 z Y Y Y ( U.oXoX5X^.z 9 x *XjXkXfX-X-X-XpXhXcXvXbXNXvXtXl.$XtX-X7X$X<.].{ $X$Xh.[.r.E Q s ; - 4 5 3 8 8 S n n S L ",
"Y U m m P U U T Y Y U / ( U.0._.P.c c c oXuXhXfX-XtXtX5XvXnXnXmXmXjXkX7X7XfXfX*X$X$X$XpXvXhX7X*X*Xh.h.0.w.~ L J D i D oXXX(.p.F ",
"Y R R T R U Y U Y Y Y U U U U I m c c m X.Y.%X%X%XtX%X-XgXjXnXmXnXjXfXgXgXfXgXfXfXuXdXhXdXuX7X-X-X*X*X%XoX|.`.Y.Y.T.U.oX@X+X..B ",
"Y Y Y Y Y U Y Y R Y R Y Y Y Y ! ( ( E I E X.^.|.[.$X/.%X*XyXsXcXcX5X$X/./.h./.].]. X].].$Xl.[.$X].].'.^.Y.r.X.~ E Y Y I / T Y Y ",
"Y Y Y U U Y Y U U Y Y Y Y Y Y / / K...Q W ..P.K.K.%X*X%X^.Y.I.!.@X!.! I E E ( K.w.~ ..0.t.r.U.Y.y. .r.T.P.0.) ( ( E E / ( T Y T ",
"Y Y R Y Y Y U T Y Y Y R Y Y U m P U Y Y I I E ~  .~./.[.T.I.I.H.H.F./ T I P I Y Y _ E T W ( ( ( K.( E W W Y I Y / G.W T T G.T R ",
"U Y Y Y U Y U Y Y R Y U Y Y Y Y Y R Y U Y E ( ..K...~ W T / F.H.J.L.L.G.T / / E Y Y I I U T / / / ( ( ( / T T T Y R F.D.D.F.R U ",
"U B U U U T Y Y Y Y Y Y U Y U U U U U U Y Y ! E W I I Y T T T F.H.H.H.H./ Y Y Y Y Y Y I P I Y Y U I / W ! T W T U R D.T R U Y Y "
};
