/* XPM */
static char *de8ef98a432245b4940b919851e6a77dUPzB7hJHL8vgEkzW[] = {
/* columns rows colors chars-per-pixel */
"64 64 205 2 ",
"   c #072903",
".  c #0B2C02",
"X  c #122D05",
"o  c #152B0A",
"O  c #182F09",
"+  c #0D3403",
"@  c #0E3C03",
"#  c #133505",
"$  c #193604",
"%  c #133C05",
"&  c #1B3C06",
"*  c #14350A",
"=  c #1B360A",
"-  c #153D09",
";  c #1B3C09",
":  c #1E3613",
">  c #1C3D13",
",  c #232B07",
"<  c #213D06",
"1  c #233709",
"2  c #223C0B",
"3  c #283909",
"4  c #0E4403",
"5  c #0E4A02",
"6  c #144405",
"7  c #1A4406",
"8  c #154B05",
"9  c #1B4B06",
"0  c #164309",
"q  c #1B440A",
"w  c #164B09",
"e  c #1C4C0A",
"r  c #0F5203",
"t  c #155304",
"y  c #1A5406",
"u  c #155B04",
"i  c #1B5B06",
"p  c #165309",
"a  c #1C540B",
"s  c #1D5B0A",
"d  c #1D4511",
"f  c #1D4C10",
"g  c #1F5310",
"h  c #1F5E10",
"j  c #224506",
"k  c #204E07",
"l  c #23440B",
"z  c #28440C",
"x  c #224C0B",
"c  c #2A4C0D",
"v  c #34430D",
"b  c #235506",
"n  c #225C06",
"m  c #23540C",
"M  c #2A540D",
"N  c #235B0C",
"B  c #2A5C0D",
"V  c #35570E",
"C  c #335E0E",
"Z  c #254412",
"A  c #284711",
"S  c #234C11",
"D  c #2A4C11",
"F  c #334E14",
"G  c #245412",
"H  c #2B5512",
"J  c #255C12",
"K  c #2B5C12",
"L  c #2B561A",
"P  c #265B1A",
"I  c #2C5C19",
"U  c #325313",
"Y  c #3F5516",
"T  c #335C13",
"R  c #3A5E16",
"E  c #355D19",
"W  c #395E19",
"Q  c #166305",
"!  c #1D6306",
"~  c #176904",
"^  c #1C6905",
"/  c #1E620A",
"(  c #1E6D0A",
")  c #236307",
"_  c #226A07",
"`  c #286A07",
"'  c #23630C",
"]  c #2A640D",
"[  c #256B0C",
"{  c #2A6B0D",
"}  c #33650E",
"|  c #3A610F",
" . c #316D0F",
".. c #217107",
"X. c #25720D",
"o. c #2B720D",
"O. c #23790C",
"+. c #2B7C0C",
"@. c #31740E",
"#. c #317B0F",
"$. c #256311",
"%. c #2B6412",
"&. c #266A11",
"*. c #2A6C10",
"=. c #296F12",
"-. c #296E11",
";. c #2C6F10",
":. c #2C6D12",
">. c #2C6F12",
",. c #2B6A14",
"<. c #296B17",
"1. c #2C6814",
"2. c #2C6E14",
"3. c #2D6C16",
"4. c #2C6B12",
"5. c #2F6618",
"6. c #2C651A",
"7. c #2D6A19",
"8. c #336610",
"9. c #326414",
"0. c #3B6315",
"q. c #306913",
"w. c #306E11",
"e. c #306D12",
"r. c #376C13",
"t. c #316B14",
"y. c #336B16",
"u. c #346916",
"i. c #346E15",
"p. c #326C14",
"a. c #3B6B15",
"s. c #336519",
"d. c #3B641A",
"f. c #346C1A",
"g. c #38691B",
"h. c #3A6B1A",
"j. c #267110",
"k. c #267212",
"l. c #267110",
"z. c #2C7010",
"x. c #2E7212",
"c. c #2C7313",
"v. c #2C7214",
"b. c #2F7314",
"n. c #2E7116",
"m. c #2D7216",
"M. c #2E7115",
"N. c #2F7414",
"B. c #2F7617",
"V. c #2C7313",
"C. c #2C7917",
"Z. c #2C7912",
"A. c #2E7219",
"S. c #307713",
"D. c #307116",
"F. c #327217",
"G. c #337017",
"H. c #327416",
"J. c #307716",
"K. c #307515",
"L. c #367614",
"P. c #347517",
"I. c #337314",
"U. c #397315",
"Y. c #307A13",
"T. c #347D11",
"R. c #357A16",
"E. c #367A16",
"W. c #347817",
"Q. c #347E15",
"!. c #337B14",
"~. c #3A7C15",
"^. c #337218",
"/. c #35761B",
"(. c #33721A",
"). c #3E751C",
"_. c #3B731B",
"`. c #357B1A",
"'. c #387B1B",
"]. c #3C7F1E",
"[. c #397C1B",
"{. c #2E6522",
"}. c #346221",
"|. c #346E20",
" X c #357421",
".X c #3C7424",
"XX c #44651A",
"oX c #426C1B",
"OX c #4A6F1B",
"+X c #45761A",
"@X c #48721E",
"#X c #427C1D",
"$X c #477521",
"%X c #417D21",
"&X c #4A7C21",
"*X c #338312",
"=X c #348015",
"-X c #368216",
";X c #3A8015",
":X c #368219",
">X c #3A8218",
",X c #3C881C",
"<X c #3D891A",
"1X c #3E8022",
"2X c #408024",
/* pixels */
"c.y _ Q ~ ( X.[ s a <.G s $.A.$.p / g S u N :XG y N y i h s [ a p X.$.D.Z.k.w 8 ( $.Q %.x s J { w 0 s -.a 5 s -.h j.s s -.$.g &.",
"&.K.h s &.X.X.~ 8 8 w m a u p e s z.w w a w *.p.N } H a h s.J a { N ' V.$.p e P { B.e 1.J./ &.s B 8 w 0 a s <.$.2.s 6 { w N K n ",
",.[ &.C.*.[ O.( i Q t h 9 m *.w s / *XN g.y.$.1.T.] %.n I.n ] D.B P s a $.y s `.G .X).^.&.1.J %.e { &.w w y N _ n N y n k V.z.^.",
"( [ X.*X8 @ ^ ~ Q a h J { [ *.[ *.J.:Xm.c.Y.y ] [ '.y.k P.[ ] i.s 2.&.%.g ' *Xn.*.1.%.P.N 4 s ' y p =X%.a y 0 ' ( c.K %.r.m a ' ",
"7 y *.Q.5 m o.[ ( / H 1.G J ' s [ $.q B *X..Q n.9 7 2 K ] i P.B ! ' &.s %.%.D.1.s s K.!.1.&.0 y W.g V.B n _ G %.S z x c.{ ] K a ",
"L m n X.Q p s ] 4 &.a y.6 l %.x q _ 0 e u y ..` ' %.k ' Y.s &.' 0 e y D s.' ] 0 P ,.).I.' ] J 1./.a p o.D.N ,.(._.M y y ' c.N $.",
"1.K.j.u i 4 t @ o %.a X.X.s J 7 N [ V.o.) ] y y [ ' [ 9 c B.s y J e B N _.' 4 K T m H N K.N B ' I.N |.x 9.i.i T b Q Y.g G E.t &.",
"b [ ! t 8 ' _ t a p N m B <.s %.c D w.i s [ i N o.' N R m ] M %.N %.m J 1.%.T P.1.s N 1.&.{ &.n +.7 q J %.%.B s.P $.a N %.N ! u ",
"B x w.' s &.a a m s a %.s y N a < c T.{ ' *.Y.V.n ' m o.M R R 9.b U.] 9 8.N 0.{ N 9.] B.h &.' w s a x 1.J %.D $.1.G X %.e s ..Z.",
"' B ).G m s Q z.s Z.' B s ' e y t ] ' ' ] { g *.] m ] s ` ] 8.x a 1.%.] 9.d.K N s *.N N $.n.<.s . N w &.P.B.,./.D.%.K t.m 7 ^ ^ ",
"s B G P %.s o.] s D.s.J 7 N { X.s ] [ u s 0 e q w.c.a.9.B { %.B 9.N U.%.J oX8.c.a J ' ' B y B 7 G %.p B a s  X|.J 2.<.7 ) 8 Y./ ",
"%.{ &.a j.J J m J N ,.Z.%.e N m x k ' 4 s N y n B ' w.L.M ) { 9._.C 0.a.B C U.p.m a ^.D.<.b 6 ;.{ w { J ' 8 6.7.s &.[ ' % % P.%.",
"P.J ' ^.&.(.&.C.J ' ' { %.[ e # ' y ] u 0 { B ] ` _ ` o.M ] d.V % B 0.C B h.K.N 7 k [.' %.J n I.J ' g J a a N [ `.' `.a m H c.%.",
"B $.<.G %.%.' <.$.Z.{ x k i.N @ m 1.y u 1.m b ] { [ { _ e r._.1.| C @XK J #XJ %.] ] b c J J I U.l x N ;.a g P s 7.w [ [ ' m ' k ",
"w / ,.A.s a [ G m &.! K 9.r.T.9 8.Y.! i ' n &.w.K B N i w.9.' t.L.r.V B B B B M ] x m %.%.%.XX_.C J m [ y $.|.N d e s 7.%.' a K ",
"+...s $.<.&.$.G / d I S [ [ a o.i @.X.w 0.J <.[ 9 N Y.8.9 ' { N { ] e %.] T G l m g.K %.a.d.@XU.a K e &.&.A.K i.c.Z.m L l w.7 7 ",
"c.) p m e - P (.s J 1.s ' ' % { &.;.Y.[ &.{ ] M t.w N K C M H ] ;.J %.K a.U s.8.} t.] oXOXoX_.B e %.n 7 ' I.1.&.{ o.[ y w m ] 1.",
"n.N &.$.s q <.B.&.y %.G &.1.s 9.i.y 8 s 8 [ ] H %.` @.U.i.k K { K ' %.A 9.N U.D.U ] B B } N I s.e N 7 x B B J m { %.K w 9 ] B ' ",
"B.B./ [ ' m 4 N ! s J B 9 n z.H N a &.K.n { p 1.B ] [ i n N ' w.a [ b ' m e B 9.9.>XA.%.} 1.1.' f.m e A &.n.m %.6.q &.K.%.k c.p ",
"e t m { y ^ X.{ ;.X.s z.6 w j.B.' %.9 M o.8 N { y b ] _ 8 n _ J n a a B B 8.N m P.[.;.m r.B i ~.K.u { ' s p.%.%.G l ' N m w ) b ",
"@ { P a +.[ %.*.N 6 b X.t 8 ' { b t.T.B a m t.n ] w 9 a D.J B y &.J w J N %.%.(.T %.' { { ` u y t ! - s g s.s ] l K a $ m M ` N ",
"s @.X.s n.s &.N 6 $ w P.e % ; M I.a B m j M V n i 9 N ] s e N w y B e G s e A _.XXb l ;.' B ' 0 B Y.a 1.`.;.K B S 6.' } B c - ] ",
"w N ) _ { %.' b { D.a %.r.' y ] ] ] k ] ] b 9 b n b U.o.p K s p ] M W K ; d.} l c P.Y.s &.i ' f.0 T ' a ] ;.m K N y p k P.B 7 n ",
"[ ' { 5 B d.J J K.P.6 n ] ) a h.} { L.N K X.y C @.M ] ) ' 1.%.a e k x p $ B %.& m J m ;.' t &.t.&.a % %.N [ m 1.h q 9 y N Q.a % ",
"4 s J 6.g s %.B.Y.`.c.8 m 9 s m 8.M B N [ ' 7 m ] 9 $ 8 ! p H G X & 0 w K K a q H %.n.o.{ [ %._ % @ 0 %.=Xw 6.&./ G m y 7 ] g $ ",
"h a N B.6 X.k.{ $.' o.u r.B i { w.] Y.M ] &.-.w.j 9.U.m 8 w N x l e s 0 Q.7 9 6 K 8.' 8 ! B _.$.&.N &.Q.' 6 h @ &.$.N N P.m a N ",
"e 7 ' ' q N V.' ' 9 t o.t.P.{ b 3 c ) C &.e 6 N } 1.[ 0.x 8 8 a %.N x x &.1.g.oX+XB { %.&.0 e C.~.p.s { &.o.] ' y y %.L.;X>X&.u.",
"e l B ! +.) %.[.s 6 ' ` ' Z.w y n N ] T N a e c a.b 9 a 7 y o.' ] 0 X x e G f.n t.%.#.B a a N -.w s.p K %.y ' w G %.G I.B q m ^.",
"7 ' { Q K w.6 m ' 5 a p i B w ! [ N ,.l ] z.1.2.' B -.J ' s J ] N w $ L a 8.Z ' ' N ).B ] J &..Xa U.K / ] n a.a X.{ %.B %.G N i ",
"a B ] 7 g.Y.( / ' ) i t _ % # n.%.y a N j.$.%.{ n M m / 2.a % 7 i { H 0 f.B.J ] + = g.#Xa.N 1.1.K ' % q a ' a e { i T M ] M l a ",
"N e m N f.&.T.' w e t 8 N t.e &.%.&.&.e &.! N b N D.y D U.7 n %.!.s a % $.a x N x Z J T y K 9.N K K c m ] [ y ;.n ; ] B J G G B ",
"$.Z.Z.%.{ 1.y ' 6 8 ) I._.w.%.a ' N m ,.- n m 7 m 9.D m 9 m <.(.9.x q K G J %.d./.1.K ; %.B 7 P.0 x K N { ^.G B 9 7 % N B #Xm a ",
"].I.[ [ 8 _ s N ' a *.N ] N %.x k.e K N % x ; K B m q i.' $.^.f.w m $.I A.n.g d s s $.6.8.G $ 7.K s  .~.y N e p x o.{ N P.t.8.] ",
"' a s [ 4 t s I.o.s ! ' 9 %.e E 6.' s N ' B j ] n t.J G p.K ' '.; ; S * N 1.6.m $.d J (.%.; f.G e ] { N a &.s s I.n n n n 9 y ] ",
"_ u s 5 % 6 s =X[ 8 N ;.' 0 %.c.s _ %.$.) k a b M k g.y H H J B B %.s.%.m J %.e %.Z 8.e }.K 1.%.e U.c w ' s G s X.1.m c a b o.c.",
"B ( ! 8 g $.u t p Q + M 9.(.7 9 a P.T m N a 7 x  .F m B g.P.M k e 1.x a w ,.2.[ y x ] w * a w P.$.B m ' - 0 a a y %.%.M 8.} i.] ",
"t J w.o.' S s a N 8 6 K.6 ' 0 m i.H w L ] 9 9 %._.T 8 9.m N M J { B 7 [ N 0 s.<.m.$.a 2 9.$.e e y A ] ) k q B %.t.K 0 a.p.%.K % ",
"s 6 0 6.&.! _ i [ % e ' 6 &.' M D < N b y i y +XM 7 ] _.M k 9.7 [ s N <Xa e {. Xf.J % : G .X6.1.; ; B e B e B K r.+XH H N ' L.;.",
"&.u a j.[ B.[ Q Z.m m a S =X%.= M H n %.y ; &.g G 9.J H M M V M N s % e w % * J x e c q @ _.`.9.d.m B _.9.a a H T x 9.1.6 n { h.",
"1.G m.Q N n.7 6 s _ y ' J D { 6 m ] &.a n 1.s.y N ' k c c F C z D a a e w 0 $.%.s B J K P G &.K 6.1.e 9.5.P ' 9.M D Y 9.' { B [ ",
"y.m p ! 4 t 7 x w n 8 9 + = M i 8.K G P 6 s N B x m l 8.D 9.c T &.J [ $.6.8 a e N N w P 6.D  XA.a o.x G J P w a u.|.x m N ] p.n ",
"T.9 K t t ' ' 1.; [ a %.w 8 K w Z H K K m H ] s H p.a J y B H 9.g.2.a l D.N c.= - f.K m %.> J &.G w a ] M y # m I L K B m &.J a ",
"t.[ n $.;.Z.u N { ' %./ t m H 0 J H m K f.q ' a m &.J 1.G } } 9 G g s.%.x m b O ' f.P m m e a ' L ' %.S ] K B K l k C k x M b w ",
"P.U.Z.a s.D.t 2.%.e g.i y *.B q %.l x q B k s ' %.a / w x I.R v 7 n m -.w 8 p m f.N M I $.I L : 9 s i.m p N o.n - ] 8.9 b V B b ",
"N e [ s c.n.s 8 c _ s B G 0 p @ f f.J - 7 ] 9 m N w.%.&.w m %.I.b e 8.>Xa t ! ] J K %.= m e &.%.[ B._.n.e m M n e T j 9 9 B C m ",
"c - $.s ' ' y t b N %.' s * 5.$.a $.a G 6.%.z U a z %.a.M D - l 8.x 2.] w G N B 2 c J l * K %.a 7 q P.7 G M 9 w x R 9 I.N k M < ",
"/ y G r   a s ) N J &.s f.&.6 a d 8 % q N B F r.N 7 [ T XXM 9 { N m d.D N c.' j.%.q w 0 O J e % 9 i e ] a N s - - N &.U m ] XXF ",
"r / / [ 9 s B w y B @.N S [.m.N P %.T %.m 8.< V N 0 N m / 9 m Y.' y D H c.` 6 J s e a.U.0 0 J m 1Xy 7 p.s.%Xc K %.8.T K B M ).W ",
"8 s s 2.7.B B.J B 2.c.B N e ' s G %.G - e q b N  .9 9 a N e s ' ' n a &.J K a p.B.J f.m N w - 2.P m o.7 g x a q %.T c %.H m P.9.",
"J G 1.$.@ e 1.%.&.N 9 1.) w w 7.[ ' S . e M a.N %.' a $.*.9 % ] % a J 0 0 &.G c 7.e N 6 a P q G - N 1.. m N G m 0.H 9 n B h.a.z ",
"&.s e [ w &.' 9.' s ! q N ' e P %.w l B 9.t.q a N 9.e 1.- e 9 0 - n.% 7 o.a I ! w 7.&.J J %.P {.I %.* + ] m B I.B %.K B m H b y ",
"' m ( s N f.&.f K ' ' 6 ] ' 6 N e q %.w.9.g ,.J y e 7 ] ' %.oX%.y L ! _ [ w * y { &.w 2.w l K @ b .X; % h m 9.q / /.s.M M L b k ",
"s q ( s [ t f f G n.$.a %.' m e w %.h e f.* x w * [ - 0.*.0 I %.a # ] ] ! 5 s s e e $.s 0 B 2.- P e %.' N $.K N e H c B z Z e m ",
"s ( / ! [ 4 e $.s ' e Z %.Q 2.G m H F # P 6 G *.' ! w q s @ N m 6.$.e N s y ` &./ 6   w { s %.a a N 7 &.a.0.Z g x N b s & n G y ",
"f a l K _.*.[ 8.N 1.H a J m *.s h.D c q e m ' ' ' y 7 2 q ' a 0 J N m S G e w / J N g w a 0 K - 9 %.a w c v z T G ' e b ' J P $.",
"a s p q K Y.8 q M l x 7 a 6.K w e %.L y N H N &.e $ z R H P % %.e @ s D G 6.{.1.I a ' %.w 4 [ m 9 x a $.q l s a n ' e d + a * L ",
"_ 9 e X.&.[ s J M M D.m 6 $ m s ; D $.* e 7.g.y % m K q a t l 9.a G J ' g 6.% + a 8 !.9 w @.y T.x c ] H M 7 k z _ %.K L y s w K ",
"B 7 = (.a B 1.G z P.$.s { - k 9 T s.$.J N a d.D & c &.9 N - $XG a e h.{ p x 0 H I.i ' y J D - ] ; T e ] ] N K J s 9.H k U x y Z.",
"L 7 y G J J 0.9 B e x x 7 H K p %.N 0 ! $.I L A z j l j e w 0 N + a 1.x J N 8 t a 0 N N 9.< y q P n N ` w 2 B 0 $ b e B H $.P J ",
"..i e l F C %.9 x M B $.e H k b w y w 6 u 7 H K z b ' c k p 5 / d a + 2 T e N &.w * S G U.$ G G m 9 [ y ! x | j m D d 7 %.# q N ",
"s J ' p T %.n o.s N Q 5 N b % 0 S ' 4 7 9 % e K E l 2 W m y G P %.0 - %.y $.G &.a w s.d ' ,.- G l ' ` 8 ! 6 9 %.6.b ' m % 6.[ a ",
"$.<.s ) m H c.) a ' y @ e ! n p &.J ' e O N e 7 q l x ] N m &.6 % . l P.J c.N N N B K 0 G 7.G S M m ' 8 ! [ & , s.' &.G $ p.h D ",
"s B N K 9.x J e ' y t 8 9 N b s { 6 ' { $ x 9 w m m e y 9 6 N 8 7 x e a m 8. .' y { 0 m g 6.%.q w x 7 n N y j 9 D %.M z q x ; 9 ",
"Q e T n w N ' < y ! p 6 m ' 6 a w a z.' 7 K 9 e G ] a m e ' Y.' @ %.9.s w % ` k w % + G 9 J a p b m l I N b m n p e M * E D 7 w "
};
