/* XPM */
static char *_d208a48ef7b4a56a019e00a7ea98e08TuIMXQR3bftez1Tx[] = {
/* columns rows colors chars-per-pixel */
"64 64 154 2 ",
"   c #240300",
".  c #2D0C00",
"X  c #340E00",
"o  c #390E00",
"O  c #351301",
"+  c #3B1402",
"@  c #3D1A05",
"#  c #39170A",
"$  c #3D1C0A",
"%  c #3F1D14",
"&  c #3C200E",
"*  c #3E2310",
"=  c #421602",
"-  c #431A05",
";  c #4A1C05",
":  c #431D0A",
">  c #4B1F0A",
",  c #511F06",
"<  c #421F13",
"1  c #402007",
"2  c #4D2407",
"3  c #44210D",
"4  c #4C220C",
"5  c #522007",
"6  c #53250D",
"7  c #50280F",
"8  c #452412",
"9  c #4B2513",
"0  c #462B16",
"q  c #4C2915",
"w  c #452319",
"e  c #482618",
"r  c #4D2B1A",
"t  c #532612",
"y  c #532B15",
"u  c #5B2C15",
"i  c #532D1B",
"p  c #592E1A",
"a  c #4D311D",
"s  c #553117",
"d  c #583017",
"f  c #55311D",
"g  c #5B331D",
"h  c #5E391F",
"j  c #63351D",
"k  c #69371E",
"l  c #63381F",
"z  c #69391F",
"x  c #4F2D21",
"c  c #512F22",
"v  c #4E3320",
"b  c #553422",
"n  c #5F3424",
"m  c #5D3724",
"M  c #5D3625",
"N  c #5B3522",
"B  c #563924",
"V  c #5E3823",
"C  c #593825",
"Z  c #5B3A27",
"A  c #5F3924",
"S  c #5E3825",
"D  c #5F3926",
"F  c #5D3A27",
"G  c #5D3925",
"H  c #573B29",
"J  c #593829",
"K  c #5A3928",
"L  c #5F3A28",
"P  c #5C3B2A",
"I  c #5D3C29",
"U  c #5F3C29",
"Y  c #5E3E29",
"T  c #5D3C2B",
"R  c #5E3D2A",
"E  c #5D3C29",
"W  c #603721",
"Q  c #633621",
"!  c #623522",
"~  c #643722",
"^  c #623724",
"/  c #623623",
"(  c #653821",
")  c #663821",
"_  c #643A21",
"`  c #663922",
"'  c #673922",
"]  c #643A22",
"[  c #673A23",
"{  c #613824",
"}  c #623925",
"|  c #633A26",
" . c #643A24",
".. c #643B25",
"X. c #673A25",
"o. c #663926",
"O. c #673A27",
"+. c #623C27",
"@. c #633B25",
"#. c #683822",
"$. c #693923",
"%. c #6A3A23",
"&. c #683B24",
"*. c #6A3A24",
"=. c #6A3E25",
"-. c #693F26",
";. c #6B3F26",
":. c #6A3C24",
">. c #603928",
",. c #613B28",
"<. c #603B29",
"1. c #623C29",
"2. c #633D2A",
"3. c #623D2B",
"4. c #673E2A",
"5. c #653F2C",
"6. c #633D2A",
"7. c #6B3E29",
"8. c #683D2A",
"9. c #6C3F28",
"0. c #683D2C",
"q. c #693E2E",
"w. c #693E2A",
"e. c #713E26",
"r. c #723E28",
"t. c #5E402C",
"y. c #664127",
"u. c #6B4226",
"i. c #61402F",
"p. c #65412D",
"a. c #6B4129",
"s. c #6E4029",
"d. c #6A412D",
"f. c #6F452D",
"g. c #6B422C",
"h. c #6D482D",
"j. c #714127",
"k. c #724029",
"l. c #704228",
"z. c #70422B",
"x. c #72462D",
"c. c #74442D",
"v. c #77452E",
"b. c #71442B",
"n. c #72492D",
"m. c #654332",
"M. c #6B4030",
"N. c #6D4430",
"B. c #6A4431",
"V. c #6D4934",
"C. c #6D4838",
"Z. c #714532",
"A. c #734933",
"S. c #7A4D33",
/* pixels */
". 8 O O : r ! = t n t u 6 > t o 4 d 2 l t : 9 9 X 9 9 > , u $.; > t 8 : p 9 x O e r : 9 i i g y . 9 r $ O $ 3 8   8 8 # < 8 # % ",
"# f 8 w i M q.< p ! ! ! p t n > u ;.u a.h i f N + N p j j #.c.6 4 p i i T b B # b B r b D M 2.N O r C r w 0 r a . x v r c J e x ",
"$ C i r b >.q.9 t O.! o.h d ~ > j l.l u.X.g / X.+ g } 7.k *.r.u 4 g p i 2.N J $ B T b L 2.5.B.| O b Y f r r x b . 9 b e b x e r ",
"< C i r p M 0.> t ! n #.g d _ ; 6 z.g ;._ g n N o p } r.%.k r.6 > n i i L b J O b L C L ,.,.g.D O r C f r f r b . 0 b x H x e x ",
"8 Y f s f V 8.4 6 #.z u.) l y.2 ; j.j :.:.g j g o u j r.#.k r.u 4 | C p Y b L $ b 3.T Y ,.,.g.V + f +.V f b b B # e P r H e x x ",
"q i.B s g N ..2 t y.:.l.;.&.u.2 ; l.j z :.k d l = u k v.%.j r.u 6 | M b 2.b T O v i.3.T ,.,.g.N @ b i.B G B B P $ 8 J r x 8 x e ",
"3 Y s f g g V ; 6 l.u.n.u.u.n.2 = n.j l z z j :.= u k k.e.u e.6 ; N D g 3.b J O r P L L M ,.g.N $ f t.Y G B B D 8 8 J r b w J r ",
"1 B f V V s h = y l.n.n.u.u.n.6 ; S.j l :.z #.l.; u j r.e.k k 6 + p M C p.C P O 9 J Y Y D ,.g.V & f t.t.P B B J $ $ B r b % H r ",
"& g V V f p :.> 6 n.l.l.n.u.n.2 j n.z z z l j.z , k k r.e.j #.u + ! N N 3.J B O $ T L B ,.D 2.p.@ B B t.f t.B t.$ & P r f 8 Y $ ",
"& B g Y f g 8.> ; s.s.n.h.u.n.2 l S.) :.u.z b.z , k k r.e.j #.t ; ,.N N 3.L B # : T L C | D 8.g.& h t.y.B t.g t.$ 8 C r v w T 3 ",
"1 h f f f d O.> = &.s.l.n.u.u.6 d n.~ ;.j.) l.z , k k *.k j #.t 4 0.N b 3.L H O 8 T C C ,.D 2.g.@ h t.t.t.t.h B 3 0 C r r 0 T w ",
"0 f r i p h 0.> = :.y.l.u.u.u.7 t g.l X.s.z z.j , k k #.#.j :.t > 2.g f L L B X w 3.L C +.M 2.p.& g h t.B p.B f 8 r C r q q m.r ",
"0 B i f n n 0.: > 7.7.z.u.y.b.7 y g.h _ s.) a.k , :.#.:.O.$.O.t 4 | g N 3.L b . q m.L C L C ,.g.1 B f t.t.t.t.t.0 a G f q r m.a ",
"r P b C >.>.q.: t Z.7.7.g.y.b.4 i p.g | y.) z.#.; :.~ #.O.o.0.> > 0.N N 3.Y b O r m.L D ,.N | M.7 g f f f m.h t.q f P b q a m.b ",
"r T C L T T q.= p Z.7.7.g.8.g.2 i M.g N &.l z.#.; :.#.#.! ! o.: 4 8.N N 3.L B # r m.T C ,.N / h.8 t.f t.h p.B g 0 f J C 0 v m.G ",
"e J C L >.! >.= n Z.8.8.a.8.8.: i p.g h ! h a.#.; ;.) ~ / ! n o < 5.N N L L J $ b m.Y M ,.N ,.B.0 h B h B p.B f 0 V Y J q b V.G ",
"q b N 2.5.2.N + y A.| g.c.! :.; Y N q h Y h p.#.> ! ! #.o.n p : 9 N N L N C ,.+ N 3.5.C L i 3.B.7 B y.V M.m.q C 9 b m.v c b m.P ",
"9 n N U D ,.V = p A.| g.g.~ 2.; V f q s g g 0.g.- p ! ! #.! ! : 9 N b L C M ,.# b 5.5.C 3.i 3.B.0 h p.C m.g.i Y q f m.b b B m.J ",
"9 N C f f D D - i A...g.g.X.g.; f f a Y _ N g.7.= t ! O.! ! n > : N b D M M 3.@ N 3.3.N Y i 5.B.8 D p.| m.p.b m.9 b i.f b P m.B ",
"3 N N r q N +.1 q A...g.g.X.g.: g t.B y.g.2.0.| = p ! ! n p p = : M N | ,.M ,.@ N ,.2.N T p 5.m.: D p.Y B.2.b m.8 f T b B P m.x ",
"3 B B a q V i.3 q V.y.i.p.2.g.2 h U s U p.2.g.! = p ! ! n p p + 3 2.C ,.2.C D @ N ,.,.N 3.f 3.p.: 2.2.Y M.Y L B.w i 3.c b P m.x ",
"0 B B f a Y p.8 7 V.Y y.p.2.f.1 f B y f D | N.| + p ! ! g ! g - : M.D D 3.D N @ C ,.D c 3.p 3.5.: ,.D D B.D 3.B.8 i T c b P T r ",
"0 B a B B t.p.0 8 V.Y U ..2.V.3 f B s f M ,.g.| = p ! n n ! N = : p.D D p.| N : | 5.M g 2.f 2.,.- ,.N M B.D 2.B.: p 5.b N T m.c ",
"0 a a B t.t.t.3 8 m.h U +.y.V.3 s y.+.2.8.0.7./ > ! _ g n / g + @ p.D D M.,.N 3 D 2.M f 2.f ,.| : L N M B.D 2.m.8 i q.N J L m.c ",
"* B v t.t.t.t.0 8 p.t.t.i.y.p.3 b G U h ,.g.| 7.> o.o./ N _ g @ - 5.2...h.+.+.3 N 2.N N _ N ..p.@ M.i g C.3.m.m.9 r C.c T 3.c >.",
"& v a H H t.m.* & p.U i.p.p.h.9 f y.U V | g.| q.> O.>./ ! V g - + 2.2.2.g.2.+.3 h p.N _ +.N ..2.: M.p b M.5.q.q.8 9 q.c N J r M ",
"& v a H H t.m.8 1 Y Y +.5.5.m.9 g U V V 0.g.7.N.> / / / l N g 2 @ ;.| 8.g.8.2.4 N 8.N | ..N ..2.: N.n p N.5.5.q.> 9 q.q b b i c ",
"& v v H H t.m.8 8 +.Y i.5.,.2.: s +.V +.M.0.7.q.> ! / n V Y B 8 = 2.| 2.N.g.7.9 | g.! ..g.! 2.g.9 q.M M q.0.5.5.8 i q.x n b c N ",
"* H B T T T m.8 9 p.T p.m.2.5.8 f +.g | g.| 7.7.> / ! | D V V 8 : g._ ! g.a.f.y ..f._ ..h._ ;.8.9 0.o.>.q.M.5.5.e M q.c n b c n ",
"* H P t.T T m.: q m.3.M.B.5.M.y y +.p ..N.} N.0.> n N X.D | V 7 4 g.V l 2.8.f.y ..a.N 8.N.X.2.g.9 o.q.| p.M.5.3.r n q.b J c b c ",
"* P P t.T T m.< r m.,.M.N.0.B.i i U p 2.Z./ Z.c.9 n ! 2.+._ V q 4 a._ N 8.8.g.t 2.8.l y.B.X.2.g.9 n M.M.0.M.0.0.< / 3.b >.c n i ",
"% J J T H T m.: i M.,.0.0.,.g.9 y y.y p.A./ Z.q.> n / 2.p.Y V 3 3 g.V h 2.2.,.2 ..X.g 2.f.| X.8.> n V.M.0.M.0.| < n 0.N 3.i n c ",
"3 2.L T Y C D + t q.o.C.p.s h.0 y Y h V g.8.g.;.+ g V +.Y C N 0 8 V.U g 2.+.D - U +.h 0.Z._ ..f.: y g.,.2.V.2.L 9 C ,.N N r 3.r ",
"8 i.L Y t.C D : t q.o.C.p.f h.2 s y.h h g.8.g.2.- d V +.+.B g 7 : V.Y V i.+.D : | +.g g.Z.| X.g.4 p B.2.3.V.2.2.3 b J b c e T e ",
"9 m.Y T P C Y : i q./ r.y.g y.& s y.l y.g...g.X.: g V +.D b B 8 # p.2.D 3.D U : D 2.N 0.A.X...f.t h V.g.+.f.2.2.3 N M b c e T e ",
"i m.Y Y C B L 9 p q./ g.g.N t.& s y.y.+.g.;.a.;.: g V U V f b 3 O D Y i.2.C | 3 _ ..N g.f...2.f.9 N g.2.+.p.i.D : C L b f e T e ",
"q m.L L N c L 9 p q.n r.g.N t.+ q u.h.y.g...g...> ! | D C f f 0 + C t.p.D N 2.: N 2.V g.A.;.8.f.t N p...+.p.M.2.: b M b f 9 t.e ",
"9 p.C J N c D 9 t q.o.q.g.f t.@ q h.h.y.g...g...: g D D b f f 0 @ C 2.m.D N 2.: g +.V g.A.8.g.g.4 | +.2.2...B.,.: p C f p q 3.q ",
"q 2.C D J x n t n r.o.q.2.g y.& 8 h.h.y.p.;.g.X.- g +.U f s f 3 3 C 2.p.N N 2.: g 2.! 8.Z.g.g.g.4 V | 2.+.@.p.C @ p N p p 9 3.q ",
"9 Y V P J c >.x p q.O.q.p.s y.1 4 y.h.y.g...g.+.- g @.@.V a f 0 q Y 2.p.N f 2.$ f 2._ g.A.g.g.g.: N N +.V V p.g : b N b b y m.i ",
"9 T C J b a 2.q p q.q.r.q.n y.1 0 u.y.h.y.h f.| : p D p.h i g 0 8 p.2.2.2.C | - f g.N | S.2.) p.4 f V +.V D +.2.9 f | g V p +.g ",
"b V.2.C f r D i p 0.O.q.>.n i.& 7 y.y.y.y.g g._ - i V i.f i f 0 3 i.U i.2.C M @ f g./ 2.A.X._ g.> f p.2.D V _ p.9 g 2.V 2.g g.N ",
"r M.Y C s r Y f t O.q.Z.0.! 5.$ 0 y.h h._ g 8.| - u V 2.g f B q 1 i.2.p.p.D M @ f g.X.2.g.! l g.+ g B.B.+.g N M.y h g.8.;.g g.h ",
"@ L C C v r 2.i p 0.q.Z.0.n 3.$ 7 y.h u.| u g.! @ p +.p.N b B 3 3 2.Y V.B.| M @ g p.| 8.g.l N ..+ M V.p.U g N h.y ! g.g.| u 8.y ",
"3 m.Y C a r U 9 i O.0.q.y.t.t.O s y.h h.+.f ;.N + p 2.y.B V f @ 3 T 2.V.m.U D : D 2.! 2.g.l ! V : ,.B.,.D g g g.t g Z.u.l u g.t ",
"r B.Y b a f p.q p 0.0.r.&.h t.O s y.V y...d X.l X p ..p.V B a O 8 2.Y V.B.D L : | +.N ..:.h ) h : 3.M.N D N g p.y f f.f.! d v.d ",
"y m.C f s b p.i p O.O.Z.+.Y t.@ f y.h h.2.g 8.l X y Y +.g B f . 9 2.Y B.B.D D 3 V V N 2.| g | N @ p.m.g N g p g.6 y b.A.k g S.l ",
"q m.C B b N +.3 p } o.N...h y.+ q @.g g.g.g ;.N X y _ U b V f O q Y D m.m.D U 4 N V _ g.! p | ! + 5.g.b N g p g.7 y u.b.g d S.g ",
"i i.V h g h Y ; s h p } 7.3.,.+ y y.f p.h.f @.V X r y.s V s G 3 q p.N h.5.N m.@ C ,.M ,./ c ,.,.# | 5.n M g p r.> O.y.b.) g h.l ",
"s i.B V d h l @ u g i O.q.0.,.+ q +.f p.V.g y.B O y U f h f U 3 q p.V V.5.C p.: N ,.C M N i N N + | 2.n ! n p g.> } 8.b._ g h.h ",
"s p.Y h g g ) = d g u O.q.J >.= y U f i.p.h U V O s U y s f y.9 q y.+.B.M.D M.3 N M N N p r N b @ 2.p.N / p p r.; j 8.g.y.s h.h ",
"q y.@.h g h ) = j k p 8.q.n n - q V s 2.V.V t.g + a V s g f i.r q h.p.B.p.Y B.: M 2.C b i i M C : 2.8.N | p n g.= ! g.g.y.s h.s ",
"9 y.+._ d ! ;.= p o.! q.r.! >.= 9 D i 2.B.D 2.N + s M i N f p.p q p.h.B.p.5.m.3 D 3.C N i i J M : ,.2.D X.g p Z.; g f.f.y.s p.s ",
"3 p...! u l 7.> p r.#.r.q.o.o.# 3 D p Y m.C 2.N + r C p N f 3.i s p.V.p.5.p.5.: D p.C i q i >.n $ M ,.N 2.N p g.: h A.a.h.y p.s ",
": 2.g._ t g e.5 u r.0.*.n n n o : D f 2.p.M 3.N O q N f M f 2.i s B.V.B.2.m.2.: 3.B.M i q r C b + N D D 8.N p B.> g A.p.h.y p.q ",
"; g.g.~ u u r.6 6 r.0.o.n n n o : M f 2.p.N 2.N O q N f M f 2.i a p.V.y.2.m.L : m.B.L p 9 9 n b + f C M g.! d b.> g A.2.p.9 p.q ",
"i 0.r.} 6 ;.r.t t r.o.o.! o.>.o : C i i.i.D b p.O q C f D b i.r q A.V.V.C V.D 3 L p.2.b M C p f O i 2.C +.2.d h.6 g g.p.2.r M i ",
"p g.7.~ > #.:., t r.o.o.n ! >.X : b i m.2.C b i.# q N f C f 2.q q V.h.V.D B.2.8 D 2.L N M M c p O q 2.N +...h g.4 p p.3.,.i L r ",
"p 7.:.! ; k :.> t r.! o.>.>.0.o 8 N f m.Y C N 3.+ i C f C N Y q q V.y.y.Y V.2.9 M 2.J C L M f b O r 2.D g.g.l h.2 y Y | J q M e ",
"i 7.j ! > j ;.4 t r.! o.>.>.q.o 3 f r 3.N f N Y O q f b N b V q q h.i.p.D B.2.9 N M n b D C i i O r 3.D p.h.h y.4 p D N n w c e ",
"t | p n 4 u 7.; t _ p h n N D O 3 a r Y r a B P . q a f f b b 3 q p.U U C m.D 9 p b i i M f q i O q Y N i.h.g l 7 p ,.n c w c w ",
"9 O.y l 2 u ;.; y _ p f c n D O 3 a s t.r r B T . r a b f B b 0 q y.V y.N g.D 9 b b i i M N r i X r C f U h.h l 7 f | N p < c w ",
": ! 4 h 4 y y.= y h y i i f C O 8 r r Y q q V G O r q r 8 r s 0 q Y f V i 2.N : p p 9 i b i 9 r X r N q h y.h l 3 7 g i w % x % ",
"X i = y ; 2 &.+ 4 u 3 4 9 q i . $ & 3 b @ $ a f O 8 @ & O & 8 @ + y 4 9 8 p q # 8 8 : : 9 3 $ : . 8 r : q h 7 7 @ 3 y 9 < # < # "
};
